<svg id="Layer_1" data-name="Layer 1" xmlns="http://www.w3.org/2000/svg" xmlns:xlink="http://www.w3.org/1999/xlink" viewBox="0 0 50 50"><defs><style>.cls-1{fill:none;}.cls-2{clip-path:url(#clip-path);}.cls-3{fill:url(#linear-gradient);}</style><clipPath id="clip-path"><path class="cls-1" d="M14.74,33.35a10.26,10.26,0,1,1,20.52,0A2.68,2.68,0,0,1,32.57,36H17.43a2.69,2.69,0,0,1-2.69-2.69m4.73-17.69A5.53,5.53,0,1,1,25,21.2a5.54,5.54,0,0,1-5.53-5.54M3.5,25A21.5,21.5,0,1,0,25,3.5,21.51,21.51,0,0,0,3.5,25"/></clipPath><linearGradient id="linear-gradient" x1="-535.4" y1="1010.4" x2="-534.85" y2="1010.4" gradientTransform="matrix(78.96, 0, 0, -78.96, 42278.01, 79805.15)" gradientUnits="userSpaceOnUse"><stop offset="0" stop-color="#f4c086"/><stop offset="1" stop-color="#f3b358"/></linearGradient></defs><g class="cls-2"><rect class="cls-3" x="3.5" y="3.5" width="43" height="43"/></g></svg>