<svg id="Layer_1" data-name="Layer 1" xmlns="http://www.w3.org/2000/svg" xmlns:xlink="http://www.w3.org/1999/xlink" viewBox="0 0 50 50"><defs><style>.cls-1{fill:none;}.cls-2{clip-path:url(#clip-path);}.cls-3{fill:url(#linear-gradient);}</style><clipPath id="clip-path"><path class="cls-1" d="M33.31,35.86a21.15,21.15,0,0,1-7.11-2,21.17,21.17,0,0,1-10-10,21.18,21.18,0,0,1-1.94-7.11,1,1,0,0,1,0-.24A2.55,2.55,0,0,1,16.79,14h3.45a2.55,2.55,0,0,1,2.56,2.27,12.79,12.79,0,0,0,.47,2.26,2.6,2.6,0,0,1-.64,2.58l-1.39,1.39a16.08,16.08,0,0,0,6.38,6.39L29,27.44a2.56,2.56,0,0,1,2.57-.64,11.64,11.64,0,0,0,2.26.47,2.58,2.58,0,0,1,2.28,2.56v3.46a2.59,2.59,0,0,1-2.59,2.58h-.24M3.5,25A21.5,21.5,0,1,0,25,3.5,21.49,21.49,0,0,0,3.5,25"/></clipPath><linearGradient id="linear-gradient" x1="-535.4" y1="1012.05" x2="-534.85" y2="1012.05" gradientTransform="matrix(78.96, 0, 0, -78.96, 42278.01, 79935.35)" gradientUnits="userSpaceOnUse"><stop offset="0" stop-color="#f4c086"/><stop offset="1" stop-color="#f3b358"/></linearGradient></defs><g class="cls-2"><rect class="cls-3" x="3.5" y="3.5" width="43" height="43"/></g></svg>