<svg id="Layer_1" data-name="Layer 1" xmlns="http://www.w3.org/2000/svg" xmlns:xlink="http://www.w3.org/1999/xlink" viewBox="0 0 50 50"><defs><style>.cls-1{fill:none;}.cls-2{clip-path:url(#clip-path);}.cls-3{fill:url(#linear-gradient);}</style><clipPath id="clip-path"><path class="cls-1" d="M19.45,21.57a11.69,11.69,0,0,1,4.77-1.07c2.29.11,4.31,1.49,3.87,4.27-.31,1.92-.87,3.8-1.31,5.7-.29,1.27-.65,2.54-.82,3.83s.38,2,1.8,1.93A15.83,15.83,0,0,0,30,35.88a1.78,1.78,0,0,1-1.43,2,9.75,9.75,0,0,1-5.48.77,3.43,3.43,0,0,1-2.95-4c.36-2.22,1-4.4,1.54-6.59a28.8,28.8,0,0,0,.64-3c.19-1.48-.39-2.08-1.86-2a15.81,15.81,0,0,0-2,.35c-.13-1.05.09-1.45,1.06-1.81m4.09-7.13a3.45,3.45,0,0,1,6.89,0A3.3,3.3,0,0,1,27,17.62h0a3.31,3.31,0,0,1-3.46-3.18M25,2.59a22.42,22.42,0,1,0,.05,0H25"/></clipPath><linearGradient id="linear-gradient" x1="-535.41" y1="1008.75" x2="-534.84" y2="1008.75" gradientTransform="matrix(78.96, 0, 0, -78.96, 42278.01, 79674.95)" gradientUnits="userSpaceOnUse"><stop offset="0" stop-color="#f4c086"/><stop offset="1" stop-color="#f3b358"/></linearGradient></defs><g class="cls-2"><rect class="cls-3" x="2.59" y="2.59" width="44.81" height="44.84"/></g></svg>