<svg id="Layer_1" data-name="Layer 1" xmlns="http://www.w3.org/2000/svg" xmlns:xlink="http://www.w3.org/1999/xlink" viewBox="0 0 50 50"><defs><style>.cls-1{fill:none;}.cls-2{clip-path:url(#clip-path);}.cls-3{fill:url(#linear-gradient);}.cls-4{clip-path:url(#clip-path-2);}.cls-5{fill:url(#linear-gradient-2);}.cls-6{clip-path:url(#clip-path-3);}.cls-7{fill:url(#linear-gradient-3);}</style><clipPath id="clip-path"><path class="cls-1" d="M16.48,31a10.7,10.7,0,0,1-2.06-6.3,8.94,8.94,0,0,1,.06-1A10.82,10.82,0,0,1,36,23.83c0,.27,0,.55,0,.83a10.83,10.83,0,0,1-16.76,9l-4.16,1.32ZM12.39,24.1c0,.19,0,.38,0,.56a12.67,12.67,0,0,0,1.85,6.6L11.9,38.1,19,35.84a13,13,0,0,0,6.22,1.59A12.81,12.81,0,0,0,38.1,24.66v-.32a12.87,12.87,0,0,0-25.71-.24"/></clipPath><linearGradient id="linear-gradient" x1="-531.73" y1="1015.81" x2="-531.19" y2="1015.81" gradientTransform="matrix(47.94, 0, 0, -47.94, 25504.61, 48725.49)" gradientUnits="userSpaceOnUse"><stop offset="0" stop-color="#f4c086"/><stop offset="1" stop-color="#f3b358"/></linearGradient><clipPath id="clip-path-2"><path class="cls-1" d="M20.06,19.22A3.58,3.58,0,0,0,19,21.84a3.79,3.79,0,0,0,.17,1.06,6.77,6.77,0,0,0,1.12,2.17,12.93,12.93,0,0,0,5.39,4.73c3.21,1.25,3.21.83,3.78.78a3.18,3.18,0,0,0,2.13-1.49,2.75,2.75,0,0,0,.19-1.49c-.08-.12-.29-.2-.61-.36s-1.86-.92-2.15-1-.5-.15-.71.16-.82,1-1,1.22-.37.24-.69.08a8.59,8.59,0,0,1-2.53-1.55A9.2,9.2,0,0,1,22.29,24c-.18-.31,0-.48.14-.63s.31-.37.48-.55l.11-.15c.07-.12.13-.23.2-.38a.54.54,0,0,0,0-.54c-.08-.16-.71-1.7-1-2.33s-.52-.52-.71-.52-.39,0-.6,0a1.19,1.19,0,0,0-.85.39"/></clipPath><linearGradient id="linear-gradient-2" x1="-522.01" y1="1021.41" x2="-521.47" y2="1021.41" gradientTransform="matrix(23.45, 0, 0, -23.45, 12262.21, 23981.09)" xlink:href="#linear-gradient"/><clipPath id="clip-path-3"><path class="cls-1" d="M13.7,31.63a13.5,13.5,0,0,1-2-7c0-.2,0-.4,0-.6a13.71,13.71,0,0,1,27.4.25v.35A13.73,13.73,0,0,1,18.82,36.51l-7.59,2.41ZM3.5,25A21.5,21.5,0,1,0,25,3.5,21.51,21.51,0,0,0,3.5,25"/></clipPath><linearGradient id="linear-gradient-3" x1="-535.38" y1="1013.71" x2="-534.83" y2="1013.71" gradientTransform="matrix(78.67, 0, 0, -78.67, 42123.74, 79777.43)" xlink:href="#linear-gradient"/></defs><g class="cls-2"><rect class="cls-3" x="11.9" y="11.9" width="26.2" height="26.21"/></g><g class="cls-4"><rect class="cls-5" x="18.96" y="18.76" width="12.85" height="12.29"/></g><g class="cls-6"><rect class="cls-7" x="3.5" y="3.5" width="43" height="43"/></g></svg>