<svg id="Layer_1" data-name="Layer 1" xmlns="http://www.w3.org/2000/svg" viewBox="0 0 50 50"><defs><style>.cls-1{fill:#493b29;}</style></defs><path class="cls-1" d="M3.45,31.05c1.68,0,3.37.08,5.06,0,.82,0,1,.25,1,1,0,2.79,0,5.58,0,8.38,0,.7.2.84.87.84q14.67,0,29.34,0c.7,0,.93-.13.91-.88,0-2.77,0-5.53,0-8.29,0-.92.27-1.07,1.09-1,1.65.05,3.31,0,5,0v.39c-.27.22-.19.53-.19.81v11c0,.29-.08.6.19.82v.78a4.06,4.06,0,0,1-2.34,2.34H5.79A3.53,3.53,0,0,1,3.45,44.7Z"/><path class="cls-1" d="M29,2.76a2,2,0,0,1,.25,1.29c0,4.42,0,8.84,0,13.26,0,.74.17,1,.91.92,1.17-.07,2.34,0,3.51,0,.35,0,.77,0,.93.39s-.15.54-.32.77q-4,5.19-8,10.38c-.77,1-1.29,1-2.09,0q-4.17-5-8.33-10c-.22-.27-.58-.54-.42-.91s.64-.23,1-.23c1.24,0,2.48-.05,3.71,0,.61,0,.75-.15.74-.75,0-4.61,0-9.23,0-13.84a1.38,1.38,0,0,1,.4-1.22Z"/></svg>