<svg width="261" height="36" viewBox="0 0 261 36" fill="none" xmlns="http://www.w3.org/2000/svg">
<g clip-path="url(#clip0_62_884)">
<path d="M32.2494 0H4.03169C2.96294 0 1.93796 0.421316 1.18223 1.17126C0.426513 1.92121 0.00195313 2.93836 0.00195312 3.99895H0.00195313V32.0011C0.00195313 33.0616 0.426513 34.0788 1.18223 34.8287C1.93796 35.5787 2.96294 36 4.03169 36H32.2494C33.3165 35.9975 34.339 35.5751 35.0927 34.8254C35.8463 34.0757 36.2696 33.06 36.2696 32.0011V3.99895C36.2696 2.94 35.8463 1.92429 35.0927 1.17461C34.339 0.424935 33.3165 0.00251084 32.2494 0V0ZM7.37825 14.0947C7.33287 13.6206 7.29943 13.1323 7.28509 12.6274C7.23225 11.0392 7.34996 9.44994 7.63623 7.88648L7.76761 7.17535H28.5039L28.6353 7.88648C28.6831 8.15197 28.7237 8.41983 28.7595 8.67821L28.7929 8.91526H9.22949C9.05487 10.0977 8.98374 11.2929 9.0169 12.4875H21.3187L21.2948 12.6535C21.2231 13.1773 21.1419 13.6538 21.0559 14.1208L21.0321 14.2369H7.39259L7.37825 14.0947ZM28.9936 12.6274C28.9769 13.1347 28.9458 13.6277 28.898 14.0947C28.8335 14.7347 28.7475 15.3558 28.6377 15.9413C28.1532 18.9385 26.9812 21.7851 25.2123 24.2615C23.45 26.6741 21.1516 28.6516 18.4953 30.0407L18.0868 30.254L17.6783 30.0383C15.0569 28.6349 12.7917 26.6578 11.0545 24.2568C9.29433 21.7782 8.12841 18.9331 7.64579 15.9389C7.63146 15.8559 7.61712 15.7753 7.60518 15.7019L7.58368 15.5596L7.55502 15.3913H9.31788L9.33937 15.5122V15.6307C9.77828 18.3742 10.8402 20.9827 12.4447 23.2588C13.9365 25.3182 15.8554 27.0366 18.0725 28.2984C20.3177 27.0461 22.2629 25.326 23.7743 23.2565C25.3936 20.986 26.4666 18.3772 26.9106 15.6307C26.9942 15.1875 27.0635 14.7157 27.1185 14.2322H23.963C23.8292 14.9196 23.6954 15.4885 23.545 16.0219C23.048 18.0435 22.1983 19.9633 21.0344 21.6943C20.3496 22.6793 19.5564 23.5857 18.6696 24.3967L18.0844 24.93L17.4944 24.3967C16.6011 23.588 15.8058 22.6787 15.1248 21.6872C13.9231 19.9561 13.1041 17.9923 12.7218 15.9247C12.7074 15.8417 12.6955 15.7587 12.6859 15.6876C12.6888 15.6458 12.6831 15.6039 12.6692 15.5644L12.6477 15.4079H14.401L14.4177 15.5312V15.6639C14.7617 17.4829 15.4859 19.2101 16.5437 20.7343C16.7396 21.0188 16.9641 21.3151 17.2245 21.6303V16.8302H18.9634V21.5308C19.2023 21.244 19.3982 20.9785 19.5821 20.713C20.6385 19.1387 21.4067 17.3917 21.8514 15.5525C22.3286 13.8522 22.5996 12.1015 22.6588 10.3375V10.1929L24.3953 10.2498V10.3968C24.3738 11.0368 24.3165 11.7195 24.2234 12.4804H28.9792L28.9936 12.6274Z" fill="#F90E13"/>
<path d="M24.4125 10.3977V10.2507L22.6759 10.1938V10.3384C22.6168 12.1025 22.3457 13.8532 21.8685 15.5534C21.4239 17.3926 20.6557 19.1396 19.5993 20.7139C19.4153 20.9794 19.2123 21.2449 18.9806 21.5317V16.8311H17.2416V21.6099C16.9813 21.2947 16.7639 20.9984 16.5608 20.7139C15.5031 19.1905 14.7789 17.4641 14.4349 15.6459V15.5131L14.4182 15.3899H12.6458L12.6673 15.5534C12.6705 15.5948 12.6761 15.636 12.684 15.6767C12.6887 15.7566 12.7007 15.836 12.7198 15.9137C13.1022 17.9806 13.9211 19.9437 15.1229 21.6739C15.8039 22.6654 16.5991 23.5747 17.4924 24.3834L18.0824 24.9167L18.6677 24.3834C19.5545 23.5724 20.3476 22.666 21.0325 21.681C22.1934 19.9524 23.0413 18.036 23.5382 16.018C23.6887 15.4847 23.8225 14.9158 23.9563 14.2284H27.1285C27.0735 14.7024 27.0042 15.1765 26.9206 15.6269C26.4766 18.3734 25.4036 20.9822 23.7843 23.2526C22.272 25.3223 20.326 27.0424 18.0801 28.2946C15.863 27.0328 13.9441 25.3144 12.4523 23.255C10.8478 20.9788 9.78589 18.3704 9.34698 15.6269V15.5084L9.31592 15.3875H7.5459L7.57456 15.5558L7.59606 15.698C7.60241 15.7781 7.616 15.8574 7.63667 15.9351C8.11915 18.9289 9.28419 21.7738 11.043 24.253C12.7833 26.6535 15.0518 28.6291 17.6764 30.0298L18.0848 30.2455L18.4933 30.0321C21.1525 28.6475 23.4543 26.6731 25.2199 24.2625C26.9959 21.7879 28.1745 18.9411 28.6644 15.9422C28.7743 15.3567 28.8603 14.7356 28.9248 14.0956C28.9725 13.6215 29.0036 13.1474 29.0203 12.6283V12.479H24.2429C24.3337 11.7204 24.391 11.0377 24.4125 10.3977Z" fill="white"/>
<path d="M21.0467 14.1107C21.1422 13.6366 21.2235 13.1625 21.2856 12.6434L21.3094 12.4774H9.0172C8.98404 11.2797 9.05516 10.0813 9.22979 8.89567H28.7956L28.7622 8.65863C28.7264 8.40025 28.6857 8.13239 28.638 7.8669L28.5066 7.15576H7.77508L7.6437 7.8669C7.35743 9.43035 7.23972 11.0196 7.29256 12.6078C7.30689 13.1127 7.34033 13.6081 7.38572 14.0751L7.40005 14.2078H21.0228L21.0467 14.1107Z" fill="white"/>
<path d="M45.3151 15.5043L45.2913 15.6109V15.6441C45.1526 16.1463 45.1355 16.6739 45.2414 17.1839C45.3472 17.6939 45.573 18.1718 45.9004 18.5787C46.2084 18.9807 46.609 19.3035 47.0687 19.52C47.5284 19.7366 48.0337 19.8405 48.5423 19.8232H54.5307C54.5996 19.8214 54.6678 19.8369 54.729 19.8683C54.7916 19.9007 54.8458 19.9472 54.8872 20.0039C54.9287 20.0607 54.9563 20.1262 54.9679 20.1954C54.9766 20.2654 54.9667 20.3365 54.9392 20.4016C54.9201 20.4656 54.8938 20.5818 54.8508 20.7453C54.8078 20.9089 54.772 21.089 54.7242 21.2834C54.6765 21.4778 54.6215 21.7172 54.5475 22.0088C54.519 22.1118 54.4564 22.2022 54.3697 22.2654C54.283 22.3287 54.1773 22.361 54.0697 22.3572H43.6359C43.612 22.4805 43.5547 22.7365 43.4591 23.1253C43.3636 23.514 43.2633 23.9407 43.1486 24.4077C43.0339 24.8746 42.9097 25.4436 42.7354 26.1405H54.6024C55.406 26.1521 56.1886 25.8865 56.8167 25.389C57.4444 24.8913 57.8928 24.2052 58.0947 23.4334C58.1114 23.3362 58.1592 23.1276 58.2404 22.8052C58.3216 22.4829 58.41 22.132 58.5032 21.7551C58.5963 21.3782 58.6775 21.044 58.742 20.7714C58.8065 20.4988 58.8447 20.3447 58.8447 20.3281C58.8525 20.3179 58.8567 20.3054 58.8567 20.2926C58.9903 19.7923 59.005 19.2681 58.8997 18.7613C58.7928 18.2539 58.5696 17.7778 58.2476 17.3698C57.9462 16.962 57.5498 16.6327 57.0922 16.4102C56.6346 16.1877 56.1294 16.0785 55.62 16.0921H49.6721C49.6038 16.0944 49.5358 16.0806 49.4739 16.0518C49.4126 16.022 49.3594 15.9781 49.3186 15.9238C49.2741 15.868 49.2423 15.8033 49.2254 15.7342C49.2085 15.665 49.2069 15.5931 49.2207 15.5232C49.2374 15.4592 49.2661 15.3454 49.3067 15.1795C49.3473 15.0136 49.3879 14.8358 49.4333 14.6414L49.4524 14.5703H45.5516C45.4441 15.0088 45.3653 15.3194 45.3151 15.5043Z" fill="#F90E13"/>
<path d="M60.6937 12.8231C60.7868 12.4367 60.8919 12.0148 61.0042 11.5597C61.1165 11.1046 61.255 10.5356 61.4175 9.85059H49.5408C47.9165 9.85059 46.7604 10.7284 46.0725 12.4842C46.0486 12.5742 46.008 12.7425 45.9482 12.9772H60.6578C60.6746 12.9251 60.6746 12.88 60.6937 12.8231Z" fill="#F90E13"/>
<path d="M72.8818 16.7564C72.8504 16.8607 72.7837 16.9511 72.6931 17.0124C72.6019 17.0738 72.4925 17.103 72.3826 17.0954H65.5198C65.7276 16.1828 65.8901 15.4716 65.9976 14.962L66.0883 14.5756H61.8675C61.8269 14.7344 61.7863 14.9051 61.7409 15.0829L60.6039 19.71C60.1867 21.412 59.6611 23.5557 59.0273 26.141H63.1407C63.1741 26.0201 63.2553 25.6812 63.3795 25.1265C63.5038 24.5718 63.6638 23.9413 63.8262 23.2657C63.9855 22.6241 64.1193 22.0654 64.2275 21.5898C64.335 21.137 64.3947 20.8952 64.4067 20.8526C64.4067 20.8526 64.4067 20.8526 64.421 20.8526L72.9296 20.8905C73.7424 20.9004 74.5339 20.6316 75.1702 20.1296C75.8019 19.6472 76.2479 18.9645 76.4338 18.1953C76.5652 17.6501 76.7085 17.0575 76.8661 16.4222C76.9951 15.9102 77.148 15.2915 77.3248 14.5732H73.4527L72.8818 16.7564Z" fill="#F90E13"/>
<path d="M76.7428 11.1228C76.4088 10.7116 75.9832 10.3828 75.4995 10.1623C75.0158 9.94188 74.4872 9.83574 73.9552 9.85226H65.8742C64.1814 9.85226 63.0094 10.7499 62.358 12.5451C62.3365 12.6375 62.2983 12.7821 62.2529 12.9789H77.5119C77.4665 12.2935 77.1963 11.6417 76.7428 11.1228Z" fill="#F90E13"/>
<path d="M94.6673 11.1197C94.3021 10.7057 93.849 10.3773 93.3405 10.158C92.8321 9.93873 92.2809 9.83404 91.7268 9.85148H83.266C82.4297 9.82798 81.6089 10.0792 80.9312 10.5661C80.2535 11.0531 79.7568 11.7485 79.5182 12.5443L79.4131 12.9781H95.5129C95.4454 12.283 95.1481 11.6296 94.6673 11.1197V11.1197Z" fill="#F90E13"/>
<path d="M90.7512 15.6613C90.5553 16.4656 90.3355 17.3554 90.0919 18.3304C89.8482 19.3054 89.5481 20.5333 89.1913 22.0141C89.1684 22.1298 89.1028 22.2329 89.0074 22.3033C88.9146 22.3765 88.7987 22.4151 88.6802 22.4123H82.0611C81.9865 22.4124 81.9126 22.3979 81.8437 22.3696C81.7739 22.3415 81.7112 22.2987 81.6598 22.244C81.6085 22.1922 81.5708 22.1287 81.5499 22.0591C81.5281 21.9901 81.5239 21.9168 81.538 21.8458C81.5929 21.6443 81.7195 21.1346 81.913 20.3334C82.1065 19.5322 82.3262 18.6386 82.5651 17.6667C82.804 16.6948 83.0142 15.8438 83.1933 15.1232L83.3295 14.5756H79.0298L78.2941 17.541C78.0059 18.712 77.6468 20.1833 77.2168 21.9548C77.101 22.4673 77.1125 23 77.2502 23.5071C77.388 24.0142 77.6478 24.4804 78.0075 24.8657C78.377 25.2833 78.8351 25.6146 79.3488 25.8359C79.8625 26.0572 80.4192 26.163 80.979 26.1458H89.3896C90.2287 26.1881 91.057 25.944 91.7367 25.454C92.4165 24.9641 92.9066 24.2579 93.1255 23.4529C93.19 23.2017 93.3477 22.564 93.6033 21.5424C93.8589 20.5207 94.1264 19.409 94.425 18.1905C94.7236 16.9721 94.9768 15.96 95.1798 15.1303L95.316 14.5732H91.0115C90.9494 14.8411 90.8634 15.1919 90.7512 15.6613Z" fill="#F90E13"/>
<path d="M107.849 16.7478C107.816 16.8513 107.75 16.9412 107.66 17.0038C107.569 17.0652 107.46 17.0944 107.35 17.0868H100.607L101.177 14.5764H96.9949L94.1738 26.1205H98.2346C98.2681 25.9996 98.3493 25.663 98.4735 25.1131C98.5977 24.5631 98.7506 23.9492 98.913 23.2784L99.3263 21.5432C99.4242 21.1165 99.4744 20.8937 99.4863 20.8676H102.006L105.183 26.1466H109.524L106.366 20.8605H107.849C108.656 20.8729 109.443 20.6092 110.078 20.1138C110.705 19.6266 111.15 18.946 111.344 18.1795C111.473 17.6312 111.615 17.0393 111.769 16.4041C111.893 15.8944 112.044 15.2781 112.218 14.5693H108.427L107.849 16.7478Z" fill="#F90E13"/>
<path d="M111.66 11.1199C111.335 10.7127 110.919 10.3861 110.444 10.166C109.97 9.94587 109.451 9.83828 108.927 9.8517H100.961C99.289 9.8517 98.1321 10.7454 97.4903 12.5327L97.3828 12.9783H112.412C112.368 12.2951 112.104 11.644 111.66 11.1199V11.1199Z" fill="#F90E13"/>
<path d="M129.66 9.85107H115.136L114.367 12.9777H128.888L129.66 9.85107Z" fill="#F90E13"/>
<path d="M116.429 26.1454H120.31L123.22 14.5752H119.381L116.429 26.1454Z" fill="#F90E13"/>
<path d="M130.156 15.5043L130.132 15.6109V15.6441C129.991 16.1455 129.974 16.6732 130.081 17.1825C130.186 17.6933 130.412 18.1719 130.741 18.5787C131.047 18.9791 131.445 19.301 131.902 19.5175C132.359 19.734 132.862 19.8388 133.368 19.8232H139.357C139.426 19.8214 139.494 19.8369 139.555 19.8683C139.617 19.9007 139.67 19.947 139.71 20.0034C139.753 20.0597 139.78 20.1258 139.789 20.1954C139.797 20.2656 139.786 20.3367 139.758 20.4016C139.741 20.4656 139.713 20.5818 139.677 20.7453C139.641 20.9089 139.598 21.089 139.55 21.2834C139.503 21.4778 139.445 21.7172 139.374 22.0088C139.345 22.1114 139.283 22.2015 139.197 22.2648C139.11 22.327 139.005 22.3595 138.898 22.3572H128.479C128.455 22.4805 128.397 22.7365 128.304 23.1253C128.211 23.514 128.106 23.9407 127.994 24.4077C127.881 24.8746 127.743 25.4436 127.578 26.1405H139.445C140.249 26.1521 141.031 25.8865 141.659 25.389C142.288 24.892 142.736 24.2056 142.937 23.4334C142.954 23.3362 143.004 23.1276 143.086 22.8052C143.167 22.4829 143.253 22.132 143.346 21.7551L143.585 20.7714C143.654 20.4917 143.688 20.3447 143.688 20.3281C143.695 20.3176 143.7 20.3054 143.702 20.2926C143.834 19.7918 143.848 19.2674 143.742 18.7604C143.637 18.2534 143.414 17.7774 143.093 17.3698C142.791 16.962 142.395 16.6327 141.937 16.4102C141.48 16.1877 140.975 16.0785 140.465 16.0921H134.517C134.449 16.0944 134.381 16.0806 134.319 16.0518C134.258 16.022 134.205 15.9781 134.164 15.9238C134.119 15.868 134.087 15.8033 134.071 15.7342C134.054 15.665 134.052 15.5931 134.066 15.5232C134.083 15.4592 134.111 15.3454 134.152 15.1795C134.192 15.0136 134.233 14.8358 134.281 14.6414L134.298 14.5703H130.397C130.285 15.0088 130.206 15.317 130.156 15.5043Z" fill="#F90E13"/>
<path d="M145.53 12.8231L145.84 11.5597C145.953 11.1046 146.092 10.5349 146.256 9.85059H134.377C132.756 9.85059 131.6 10.7284 130.908 12.4842C130.884 12.5742 130.844 12.7425 130.784 12.9772H145.496C145.506 12.9251 145.518 12.88 145.53 12.8231Z" fill="#F90E13"/>
<path d="M176.234 9.85107H171.354L169.921 12.9777H174.698L176.234 9.85107Z" fill="#F90E13"/>
<path d="M165.623 9.85107H161.729L161.925 12.9777H165.838L165.623 9.85107Z" fill="#F90E13"/>
<path d="M157.626 9.85059H153.23L153.417 12.9772H157.755L157.626 9.85059Z" fill="#F90E13"/>
<path d="M166.377 20.7692L165.95 14.5752H161.438L158.089 21.0963L157.821 14.587H153.521L154.018 22.9192C154.069 23.8034 154.462 24.634 155.115 25.2375C155.745 25.8389 156.589 26.1694 157.463 26.1572H159.837L162.405 20.9422L162.708 26.1572H168.331L173.95 14.587H169.199L166.377 20.7692Z" fill="#F90E13"/>
<path d="M185.447 21.651L184.339 26.1548H188.23L191.049 14.5752H187.177L185.447 21.651Z" fill="#F90E13"/>
<path d="M173.532 26.1454H177.39L178.486 21.6652H184.303L185.227 17.9199H179.392L180.209 14.5752H176.38L173.532 26.1454Z" fill="#F90E13"/>
<path d="M192.2 9.85107H180.257C178.642 9.85107 177.515 10.7487 176.875 12.5439L176.765 12.9777H191.429L192.2 9.85107Z" fill="#F90E13"/>
<path d="M205.067 18.3043L201.888 14.5732H192.875L190.047 26.1434H193.943L196.707 14.6965L203.825 23.1021L203.094 26.1458H206.94L209.756 14.5756H205.922L205.067 18.3043Z" fill="#F90E13"/>
<path d="M210.908 9.85107H207.012L206.295 12.9777H210.148L210.908 9.85107Z" fill="#F90E13"/>
<path d="M197.861 9.85059H196.814C195.206 9.85059 194.058 10.7482 193.37 12.5434L193.265 12.9772H200.526L197.861 9.85059Z" fill="#F90E13"/>
<path d="M226.829 11.1191C226.493 10.7102 226.067 10.3832 225.583 10.1634C225.1 9.94351 224.572 9.8366 224.041 9.85087H215.036C214.5 9.84963 213.978 10.0238 213.552 10.3463C213.116 10.6515 212.804 11.1013 212.673 11.6145C212.668 11.6267 212.668 11.6402 212.673 11.6524C212.659 11.7069 212.554 12.1478 212.355 12.9656H227.598C227.548 12.2841 227.278 11.6365 226.829 11.1191V11.1191Z" fill="#F90E13"/>
<path d="M222.521 18.0155L221.834 20.8245C221.628 21.6683 221.497 22.1954 221.439 22.4056H214.123C214.527 20.7494 214.866 19.3706 215.138 18.2691C215.41 17.1676 215.656 16.1673 215.874 15.2681L216.043 14.5688H211.961L211.006 18.518L209.811 23.4462L209.154 26.139H221.726C223.412 26.139 224.581 25.2414 225.23 23.4462C225.657 21.6731 226.014 20.201 226.3 19.03L227.081 15.8299C227.21 15.2918 227.32 14.8817 227.39 14.5688H223.365C223.033 15.9366 222.751 17.0934 222.521 18.0155Z" fill="#F90E13"/>
<path d="M227.422 21.9652C227.29 22.47 227.285 22.9989 227.407 23.506C227.531 24.0135 227.777 24.4836 228.124 24.8761C228.455 25.2877 228.877 25.6172 229.359 25.8385C229.842 26.0572 230.369 26.1627 230.9 26.1467H240.54C240.873 24.8003 241.173 23.5597 241.441 22.4251H231.936C231.866 22.4275 231.797 22.4137 231.733 22.3848C231.669 22.3559 231.614 22.312 231.571 22.2568C231.523 22.2027 231.489 22.1387 231.47 22.0695C231.455 22 231.455 21.928 231.47 21.8585L231.948 19.8768H238.629L239.492 16.1458H232.851L233.231 14.5884H229.218L227.422 21.9652Z" fill="#F90E13"/>
<path d="M244.511 9.85059H233.23C231.54 9.85059 230.368 10.7482 229.714 12.5434L229.608 12.9772H243.759L244.511 9.85059Z" fill="#F90E13"/>
<path d="M255.911 16.7478C255.88 16.8521 255.813 16.9425 255.722 17.0038C255.631 17.0652 255.522 17.0944 255.412 17.0868H248.661L249.232 14.5764H245.052L242.229 26.1205H246.289C246.323 25.9996 246.404 25.663 246.528 25.1131C246.652 24.5631 246.805 23.9492 246.968 23.2784C247.13 22.6075 247.266 22.0268 247.381 21.5432C247.479 21.1165 247.531 20.8937 247.541 20.8676H250.061L253.238 26.1466H257.581L254.428 20.8605H255.913C256.72 20.8729 257.506 20.6092 258.14 20.1138C258.767 19.6266 259.212 18.946 259.406 18.1795C259.535 17.6312 259.676 17.0393 259.831 16.4041C259.955 15.8944 260.106 15.2781 260.282 14.5693H256.489L255.911 16.7478Z" fill="#F90E13"/>
<path d="M259.725 11.1191C259.4 10.7109 258.982 10.3837 258.507 10.1636C258.031 9.94343 257.51 9.83637 256.986 9.85092H249.027C247.354 9.85092 246.198 10.7446 245.558 12.5319L245.448 12.9775H260.478C260.432 12.2946 260.168 11.6439 259.725 11.1191V11.1191Z" fill="#F90E13"/>
</g>
<defs>
<clipPath id="clip0_62_884">
<rect width="260.476" height="36" fill="white"/>
</clipPath>
</defs>
</svg>
