<?xml version="1.0" encoding="utf-8"?>
<!-- Generator: Adobe Illustrator 25.4.1, SVG Export Plug-In . SVG Version: 6.00 Build 0)  -->
<svg version="1.1" id="Layer_1" xmlns="http://www.w3.org/2000/svg" xmlns:xlink="http://www.w3.org/1999/xlink" x="0px" y="0px"
	 viewBox="0 0 2417.8 800" style="enable-background:new 0 0 2417.8 800;" xml:space="preserve">
<style type="text/css">
	.st0{fill:#7FB955;}
	.st1{fill:#354D86;}
	.st2{fill:url(#SVGID_1_);}
	.st3{fill:url(#SVGID_00000113334453958142892400000014053123961615662734_);}
	.st4{fill:url(#SVGID_00000058578000958041893590000012174040683643026327_);}
	.st5{fill:url(#SVGID_00000152969384033924449560000012735981366434224550_);}
	.st6{fill:url(#SVGID_00000019673190902114413370000016091014285539647635_);}
	.st7{fill:url(#SVGID_00000174573056739302974460000011853720757828709288_);}
</style>
<g>
	<path d="M960,270.5c0-12.7,2.2-25,6.8-37c4.5-12,11.1-22.9,19.9-32.7c8.7-9.8,19.3-17.6,31.8-23.5c12.5-5.9,26.6-8.8,42.3-8.8
		c18.8,0,35.1,4.1,48.8,12.4c13.7,8.3,23.9,19,30.4,32.2l-30.2,21c-3.5-7.7-8-13.7-13.5-18.1c-5.6-4.4-11.6-7.6-18-9.5
		c-6.4-1.9-12.6-2.9-18.6-2.9c-10,0-18.7,2-26.1,6c-7.4,4-13.5,9.3-18.4,15.8c-4.9,6.5-8.6,13.8-11.1,21.9
		c-2.5,8.1-3.7,16.2-3.7,24.5c0,8.8,1.4,17.4,4.3,25.8c2.9,8.4,7,15.8,12.2,22.2s11.6,11.5,19,15.3c7.4,3.8,15.5,5.6,24.3,5.6
		c6.1,0,12.5-1.1,19-3.2c6.5-2.1,12.6-5.5,18.1-10.1c5.6-4.6,10.1-10.7,13.5-18.1l32.2,19c-4.2,10.2-10.9,18.8-20,25.9
		c-9.1,7.1-19.3,12.5-30.5,16.1c-11.2,3.7-22.4,5.5-33.6,5.5c-14.6,0-27.9-3-39.9-9.1s-22.4-14.1-31.2-24.2
		c-8.8-10.1-15.7-21.4-20.6-34C962.4,296.1,960,283.4,960,270.5z"/>
	<path d="M1165.9,164.2h38.6v162.1c0,7.1,1.1,11.9,3.5,14.3s5.4,3.6,9.2,3.6c3.5,0,6.8-0.4,9.9-1.2c3.2-0.8,6-1.8,8.5-3.2l5.2,29.7
		c-5.2,2.5-11.2,4.4-18,5.8c-6.8,1.3-13.1,2-18.9,2c-12.1,0-21.5-3.2-28.1-9.7c-6.6-6.4-9.9-15.5-9.9-27.3V164.2z"/>
	<path d="M1257.5,202.2v-38h38.3v38H1257.5z M1257.5,374.4V223.5h38.3v150.9H1257.5z"/>
	<path d="M1565.4,374.4h-38.6V291c0-11.9-2.1-20.6-6.2-26.1c-4.1-5.5-9.8-8.2-17.1-8.2c-7.7,0-14.9,2.9-21.6,8.7
		c-6.7,5.8-11.5,13.2-14.4,22.3v86.9h-38.9V291c0-11.9-2-20.6-6.1-26.1c-4-5.5-9.7-8.2-17-8.2c-7.5,0-14.7,2.8-21.6,8.4
		c-6.9,5.6-11.8,13-14.7,22.2v87.1h-38.3V225h34.8v27.9c5.8-9.7,13.5-17.1,23.2-22.4s20.7-7.8,33-7.8c12.5,0,22.2,3,29.2,9.1
		c7,6.1,11.5,13.6,13.4,22.5c6.1-10.2,14-18.1,23.5-23.5c9.5-5.4,20.3-8.1,32.4-8.1c9.2,0,16.8,1.7,22.6,5
		c5.9,3.3,10.4,7.8,13.7,13.4c3.3,5.6,5.5,11.9,6.8,18.9c1.2,7,1.9,14,1.9,21.1V374.4z"/>
	<path d="M1588.7,330.4c0-9.7,2.7-18.1,8.2-25.3c5.5-7.2,13.1-12.9,22.8-16.9s21-6.1,33.8-6.1c6.3,0,12.8,0.5,19.3,1.4
		c6.5,1,12.2,2.5,17,4.6v-8.3c0-9.2-2.8-16.4-8.4-21.5c-5.6-5.1-13.9-7.6-25.1-7.6c-8.5,0-16.4,1.4-23.9,4.3
		c-7.5,2.9-15.4,7-23.6,12.4l-12.1-25.1c9.8-6.7,19.9-11.7,30.4-14.8c10.5-3.2,21.5-4.8,33-4.8c21.5,0,38.2,5.3,50.3,15.8
		c12,10.5,18,25.7,18,45.6v47.4c0,4,0.7,6.8,2.2,8.5c1.4,1.7,3.8,2.8,7.1,3.1v31.4c-3.5,0.6-6.6,1.1-9.4,1.4s-5.1,0.5-7.1,0.3
		c-7.7,0-13.5-1.7-17.4-5c-3.9-3.4-6.3-7.5-7.1-12.5l-0.9-7.8c-6.7,8.5-15,15-24.8,19.6c-9.8,4.6-19.8,6.9-30,6.9
		c-10,0-19-2.1-26.9-6.3s-14.2-9.8-18.7-16.9C1590.9,347,1588.7,339.1,1588.7,330.4z M1682.6,337.6c2.1-1.9,3.8-4,5.2-6.5
		c1.3-2.4,2-4.5,2-6.2v-14.9c-4.6-1.9-9.6-3.3-15-4.4s-10.5-1.5-15.3-1.5c-10,0-18.2,2.1-24.6,6.3c-6.4,4.2-9.6,9.8-9.6,16.7
		c0,3.7,1.1,7.3,3.2,10.8c2.1,3.5,5.1,6.2,9.1,8.3c3.9,2.1,8.8,3.1,14.5,3.1c5.8,0,11.4-1.1,17-3.4
		C1674.6,343.8,1679.1,341,1682.6,337.6z"/>
	<path d="M1853.4,367c-3.5,1.5-7.4,3.1-12,4.8c-4.5,1.6-9.4,3-14.7,4s-10.6,1.6-16,1.6c-7.3,0-13.9-1.2-19.9-3.7
		c-6-2.5-10.7-6.4-14.3-11.8c-3.6-5.4-5.3-12.5-5.3-21.2v-86.2h-19.6V225h19.6v-49h38.9v49h31.7v29.4h-31.7v73.1
		c0.2,5.1,1.6,8.9,4.3,11.2c2.7,2.4,6.1,3.5,10.4,3.5c3.8,0,7.7-0.7,11.5-2.2c3.8-1.4,7-2.7,9.5-3.9L1853.4,367z"/>
	<path d="M1941.5,377.3c-12.1,0-23-2-32.8-6.1c-9.8-4.1-18.1-9.7-25.1-16.8s-12.2-15.2-15.8-24.4s-5.5-18.9-5.5-29.3
		c0-14.1,3.2-27,9.6-38.9c6.4-11.9,15.6-21.4,27.4-28.5c11.8-7.1,26-10.7,42.5-10.7c16.3,0,30.3,3.6,42,10.7
		c11.7,7.1,20.7,16.5,27.1,28.1s9.5,24.2,9.5,37.9c0,2.5-0.1,4.8-0.3,7c-0.2,2.2-0.4,4-0.6,5.6h-116.4c0.6,7.9,2.7,14.6,6.5,20.1
		c3.7,5.5,8.5,9.8,14.4,12.8s12,4.5,18.6,4.5c7.9,0,15.2-1.9,22-5.6c6.8-3.7,11.5-8.8,14-15.1l32.8,9.2c-3.5,7.7-8.5,14.5-15.3,20.4
		c-6.7,6-14.7,10.6-23.9,14S1952.8,377.3,1941.5,377.3z M1902,287.8h78.9c-0.8-7.5-2.9-14-6.5-19.6c-3.6-5.5-8.2-9.8-14-12.9
		c-5.8-3.1-12.2-4.6-19.3-4.6c-6.9,0-13.2,1.5-18.9,4.6c-5.7,3.1-10.3,7.4-13.8,12.9C1905,273.7,1902.8,280.3,1902,287.8z"/>
	<path d="M1164.4,670.4V466h39.7v204.5H1164.4z"/>
	<path d="M1477.4,670.4h-38.6V587c0-11.9-2.1-20.6-6.2-26.1c-4.1-5.5-9.8-8.2-17.1-8.2c-7.7,0-14.9,2.9-21.6,8.7
		c-6.7,5.8-11.5,13.2-14.4,22.3v86.9h-38.9V587c0-11.9-2-20.6-6.1-26.1c-4-5.5-9.7-8.2-17-8.2c-7.5,0-14.7,2.8-21.6,8.4
		c-6.9,5.6-11.8,13-14.7,22.2v87.1H1243V521h34.8v27.9c5.8-9.7,13.5-17.1,23.2-22.4s20.7-7.8,33-7.8c12.5,0,22.2,3,29.2,9.1
		c7,6.1,11.5,13.6,13.4,22.5c6.1-10.2,14-18.1,23.5-23.5c9.5-5.4,20.3-8.1,32.4-8.1c9.2,0,16.8,1.7,22.6,5
		c5.9,3.3,10.4,7.8,13.7,13.4c3.3,5.6,5.5,11.9,6.8,18.9c1.2,7,1.9,14,1.9,21.1V670.4z"/>
	<path d="M1601.6,673.3c-11.7,0-22.1-2.7-31.1-8c-9-5.3-16-12.3-21-21.1v87.5h-38.3V521h33.7v25.9c5.8-8.7,13.1-15.6,21.9-20.6
		c8.8-5,18.9-7.6,30.2-7.6c10.2,0,19.5,2,28.1,6c8.5,4,16,9.5,22.5,16.7c6.4,7.1,11.4,15.3,14.8,24.6c3.5,9.3,5.2,19.2,5.2,29.6
		c0,14.4-2.8,27.5-8.5,39.3c-5.7,11.8-13.4,21.1-23.3,28C1625.8,669.9,1614.4,673.3,1601.6,673.3z M1588.6,640.5
		c5.8,0,11.1-1.2,16-3.7c4.9-2.4,9.1-5.7,12.5-9.9c3.5-4.1,6.1-9,8.1-14.6c1.9-5.5,2.9-11.2,2.9-17.1c0-6-1-11.7-3-17.1
		s-4.9-10-8.8-14c-3.8-4-8.3-7.1-13.4-9.3c-5.1-2.3-10.7-3.4-16.9-3.4c-3.5,0-7.1,0.6-10.8,1.8c-3.7,1.2-7.3,2.9-10.8,5.2
		c-3.5,2.2-6.4,4.8-8.9,7.7c-2.5,2.9-4.5,6.2-6,10v35c2.5,5.4,5.7,10.4,9.6,14.9c3.9,4.5,8.5,8,13.7,10.5
		C1577.9,639.2,1583.2,640.5,1588.6,640.5z"/>
	<path d="M1683.4,626.4c0-9.7,2.7-18.1,8.2-25.3c5.5-7.2,13.1-12.9,22.8-16.9s21-6.1,33.8-6.1c6.3,0,12.8,0.5,19.3,1.4
		c6.5,1,12.2,2.5,17,4.6v-8.3c0-9.2-2.8-16.4-8.4-21.5c-5.6-5.1-13.9-7.6-25.1-7.6c-8.5,0-16.4,1.4-23.9,4.3
		c-7.5,2.9-15.4,7-23.6,12.4l-12.1-25.1c9.8-6.7,19.9-11.7,30.4-14.8c10.5-3.2,21.5-4.8,33-4.8c21.5,0,38.2,5.3,50.3,15.8
		c12,10.5,18,25.7,18,45.6v47.4c0,4,0.7,6.8,2.2,8.5c1.4,1.7,3.8,2.8,7.1,3.1v31.4c-3.5,0.6-6.6,1.1-9.4,1.4s-5.1,0.5-7.1,0.3
		c-7.7,0-13.5-1.7-17.4-5c-3.9-3.4-6.3-7.5-7.1-12.5l-0.9-7.8c-6.7,8.5-15,15-24.8,19.6c-9.8,4.6-19.8,6.9-30,6.9
		c-10,0-19-2.1-26.9-6.3s-14.2-9.8-18.7-16.9C1685.6,643,1683.4,635.1,1683.4,626.4z M1777.2,633.6c2.1-1.9,3.8-4,5.2-6.5
		c1.3-2.4,2-4.5,2-6.2v-14.9c-4.6-1.9-9.6-3.3-15-4.4s-10.5-1.5-15.3-1.5c-10,0-18.2,2.1-24.6,6.3c-6.4,4.2-9.6,9.8-9.6,16.7
		c0,3.7,1.1,7.3,3.2,10.8c2.1,3.5,5.1,6.2,9.1,8.3c3.9,2.1,8.8,3.1,14.5,3.1c5.8,0,11.4-1.1,17-3.4
		C1769.3,639.8,1773.8,637,1777.2,633.6z"/>
	<path d="M1929.3,673.3c-12.5,0-23.6-2-33.3-6.1c-9.7-4.1-18-9.8-24.9-17.1s-12.2-15.6-15.8-24.9c-3.6-9.3-5.5-19.1-5.5-29.3
		c0-13.9,3.2-26.7,9.5-38.4c6.3-11.8,15.5-21.2,27.4-28.2c11.9-7,26-10.5,42.3-10.5c16.3,0,30.3,3.6,42,10.7
		c11.7,7.1,20.3,16.4,25.9,27.9l-37.4,11.5c-3.3-5.6-7.6-9.8-13-12.8s-11.4-4.5-18.1-4.5c-7.1,0-13.6,1.8-19.6,5.5
		s-10.7,8.8-14.3,15.4s-5.3,14.4-5.3,23.5c0,8.7,1.8,16.4,5.3,23.2c3.6,6.8,8.3,12.1,14.3,15.8s12.6,5.6,19.9,5.6
		c4.8,0,9.2-0.8,13.2-2.3c4-1.5,7.7-3.7,11.1-6.5c3.4-2.8,5.8-5.8,7.3-9.1l37.4,11.5c-3.5,7.5-8.5,14.2-15.1,20.2
		s-14.4,10.6-23.3,14S1940.4,673.3,1929.3,673.3z"/>
	<path d="M2111.9,663c-3.5,1.5-7.4,3.1-12,4.8c-4.5,1.6-9.4,3-14.7,4s-10.6,1.6-16,1.6c-7.3,0-13.9-1.2-19.9-3.7
		c-6-2.5-10.7-6.4-14.3-11.8c-3.6-5.4-5.3-12.5-5.3-21.2v-86.2h-19.6V521h19.6v-49h38.9v49h31.7v29.4h-31.7v73.1
		c0.2,5.1,1.6,8.9,4.3,11.2c2.7,2.4,6.1,3.5,10.4,3.5c3.8,0,7.7-0.7,11.5-2.2c3.8-1.4,7-2.7,9.5-3.9L2111.9,663z"/>
</g>
<path class="st0" d="M2244.2,477.8l60.6,71.1l61-71.1h52l-85.2,97.4l82.5,94.6h-52l-58.2-68.4l-57.9,68.4h-52.3l82.5-94.6
	l-85.2-97.4H2244.2z"/>
<g>
	<path class="st1" d="M503,48.3c85,29,152,51.8,147.3,41c-2.2-3.1-4.9-5.8-8-8l-2.3-1.4l2.5,1.8c-9-6.7-16.8-12.1-24-16.7
		c-7.2-4.6-18.1-11.4-29.6-17.6l-3-1.6l-2.3-1.2l-3-1.5l-2.6-1.3l0,0h-0.5c-21.1-9.9-42.7-18.6-64.9-25.8
		c-18.4-5.8-37.3-9.8-56.5-12.1c-20.7-3.1-41.7-4-62.7-3.5C376,1.4,353.4,3,336,5.2C354.2,3.7,385.8,8.4,503,48.3z"/>
	
		<linearGradient id="SVGID_1_" gradientUnits="userSpaceOnUse" x1="-3045.834" y1="2978.2886" x2="-2321.7522" y2="2978.2886" gradientTransform="matrix(-0.98 0.21 0.21 0.98 -2851.8125 -1833.4569)">
		<stop  offset="0" style="stop-color:#527A43"/>
		<stop  offset="1" style="stop-color:#976B27"/>
	</linearGradient>
	<path class="st2" d="M22.9,527.8L32,550c-5.8-22.8,39-16,157,21.2c451,143.3,451,143.3,471,132.5c8.2-7.4,15.9-15.4,23-24
		c25-32,27.7-29.2,41.3-48c23.4-35.5,23.3-34.9,33-54.5l9.5-19.9c-18.2,22.7-46.8,13.4-532.5-141.1C74.5,366.6,5.1,353.3,0.6,376.8
		L0,406.6c0.8,20.6,3.2,41.1,7.2,61.3C10.7,488.3,16,508.3,22.9,527.8z"/>
	
		<radialGradient id="SVGID_00000115513420757893958120000004142071831318175116_" cx="-373.0292" cy="1019.7974" r="1483.0431" gradientTransform="matrix(0.98 -0.2 -0.2 -0.9798 435.4449 950.9332)" gradientUnits="userSpaceOnUse">
		<stop  offset="0.13" style="stop-color:#36804A"/>
		<stop  offset="0.27" style="stop-color:#31735B"/>
		<stop  offset="0.55" style="stop-color:#214F89"/>
		<stop  offset="0.59" style="stop-color:#1D4A8E"/>
	</radialGradient>
	<path style="fill:url(#SVGID_00000115513420757893958120000004142071831318175116_);" d="M315.7,251.9
		C741.2,389.2,795.7,406.9,800,382c-1-11.4-1.8-26.8-3.6-38.2c-3-20.3-7.9-40.4-14.6-59.8c-5.9-19.6-13.3-38.8-22.2-57.2l-6.2-12.5
		c9.6,26.2-78.2-3.5-342.4-91.3C307.6,89.2,200,55.3,173.8,70.1l-10.4,7.4c-16.8,12.2-32.7,25.8-47.3,40.6
		c-14.9,15-28.6,31.2-40.9,48.4c-7,10.6-16.6,24.8-23,35.8C72.4,239.9,105.7,185,315.7,251.9z"/>
	
		<linearGradient id="SVGID_00000135660719045350245800000001633678542966767504_" gradientUnits="userSpaceOnUse" x1="121.4277" y1="787.3" x2="505.6" y2="787.3" gradientTransform="matrix(1 0 0 -1 0 1526.4932)">
		<stop  offset="0" style="stop-color:#814F20"/>
		<stop  offset="0.28" style="stop-color:#9A5F22"/>
		<stop  offset="0.49" style="stop-color:#B06A28"/>
		<stop  offset="0.54" style="stop-color:#AD6A28"/>
		<stop  offset="0.77" style="stop-color:#9E6125"/>
		<stop  offset="1" style="stop-color:#9C6124"/>
	</linearGradient>
	<path style="fill:url(#SVGID_00000135660719045350245800000001633678542966767504_);" d="M221.8,757
		c50.8,19.6,71.4,29.8,109.8,36.6l13.1,2.1c20.6,3,41.4,4.3,62.2,3.8c20.6-0.2,41.2-2.2,61.4-5.8c11.2-2.4,26-5.9,37.1-8.9
		c-9.9,1.5-21.5,2-73.4-13c-83.4-24-164.6-54.8-248-80c-21.2-6.2-71.1-21.8-61.5-5.4c2.3,3.3,5,6.3,8,8.9
		c5.2,4.6,11.5,9.8,17.9,14.9c6.4,5.1,12.5,10,18,14.1c8.5,6.2,16,11,22.7,15.1c6.7,4.2,13.4,8,21.9,12.6l3,1.6l2.4,1.2L221.8,757z"
		/>
	
		<radialGradient id="SVGID_00000045591562866097548050000000689994306967923385_" cx="43.679" cy="174.9176" r="513.6113" gradientTransform="matrix(0.98 -0.2 -0.2 -0.9798 435.4449 950.9332)" gradientUnits="userSpaceOnUse">
		<stop  offset="0" style="stop-color:#A46827"/>
		<stop  offset="0.52" style="stop-color:#CF9349"/>
		<stop  offset="0.66" style="stop-color:#D1954F"/>
		<stop  offset="0.8" style="stop-color:#D7A05C"/>
		<stop  offset="0.94" style="stop-color:#E0B071"/>
		<stop  offset="0.99" style="stop-color:#E2B477"/>
	</radialGradient>
	<path style="fill:url(#SVGID_00000045591562866097548050000000689994306967923385_);" d="M505.7,785.3c-11.1,2.6-26,6.8-37.2,8.9
		c-20.3,3.4-40.9,5.1-61.4,5.2c-20.8,1.6-41.8,0.3-62.2-3.8l-13.1-2.1c3.4,1.1,7.1,1.1,10.5,0c1.8-10.1-27.8-30.2-115.7-90.1
		c-123.9-84.7-185-129.3-197.2-153.8l-8-22.3C14.6,508,9.6,488.1,6.1,467.9c-3.7-20.2-5.7-40.8-6.1-61.3l0.6-29.8
		c45.8,72.8,111.2,113.6,342.2,268.4C437.8,710,536,777.2,505.7,785.3z"/>
	
		<radialGradient id="SVGID_00000041975423571126485720000016856699606515071164_" cx="-141.6688" cy="566.1982" r="468.1589" gradientTransform="matrix(0.98 -0.2 -0.2 -0.9798 435.4449 950.9332)" gradientUnits="userSpaceOnUse">
		<stop  offset="0.35" style="stop-color:#AFD188"/>
		<stop  offset="0.47" style="stop-color:#A8CD80"/>
		<stop  offset="0.66" style="stop-color:#8CC269"/>
		<stop  offset="0.84" style="stop-color:#71B650"/>
	</radialGradient>
	<path style="fill:url(#SVGID_00000041975423571126485720000016856699606515071164_);" d="M768,558l-9,19.4
		c-9.6,19.5-20.8,38.3-33.5,56c-12.3,17.1-26,33.1-41,48c-7.3,6.8-16.7,16-24,22.5c14-21.8-84.6-92.1-214.6-181.6
		C205.4,356.6,36.4,236.8,52.2,202.3c6.7-10.9,14.4-26.5,21.8-37c12.8-17.7,27.1-34.3,42.8-49.6c14.2-14.3,29.8-27.1,46.6-38.3
		l10.4-7.4C160,104.5,296,199.9,541.1,367.8C656,445.9,777.2,531.8,768,558z"/>
	
		<radialGradient id="SVGID_00000093858158411004508900000001796756920743005883_" cx="144.7307" cy="964.7578" r="804.4807" gradientTransform="matrix(0.98 -0.2 -0.2 -0.9798 435.4449 950.9332)" gradientUnits="userSpaceOnUse">
		<stop  offset="0" style="stop-color:#60C3F0"/>
		<stop  offset="0.3" style="stop-color:#5FAEE1"/>
		<stop  offset="0.44" style="stop-color:#4786C6"/>
		<stop  offset="0.58" style="stop-color:#3D6AB0"/>
		<stop  offset="0.72" style="stop-color:#3556A1"/>
		<stop  offset="0.84" style="stop-color:#2F4997"/>
		<stop  offset="0.95" style="stop-color:#2F4593"/>
	</radialGradient>
	<path style="fill:url(#SVGID_00000093858158411004508900000001796756920743005883_);" d="M518.5,17.9c-15.5-5.4-20-4.5-24-3.1
		c0,9.6,28.6,32,123,94.9c88,59.1,128,89.4,136,104.6c0,0,41.8,78.1,45.8,166c-15.4-29.2-51.4-52.5-51.4-52.5l-145.4-104
		C427.5,105.6,296.6,14.5,336,5.3C336,5.3,429.2-12.8,518.5,17.9z"/>
</g>
</svg>
