<?xml version="1.0" encoding="utf-8"?>
<!-- Generator: Adobe Illustrator 25.0.0, SVG Export Plug-In . SVG Version: 6.00 Build 0)  -->
<svg version="1.1" id="Layer_1" xmlns="http://www.w3.org/2000/svg" xmlns:xlink="http://www.w3.org/1999/xlink" x="0px" y="0px"
	 viewBox="0 0 350 350" style="enable-background:new 0 0 350 350;" xml:space="preserve">
<style type="text/css">
	.st0{fill:#263238;}
	.st1{fill:#96683B;}
	.st2{opacity:0.6;}
	.st3{fill:#FFFFFF;}
	.st4{fill:#455A64;}
	.st5{fill:#EFBEAB;}
	.st6{fill:#E0E0E0;}
</style>
<g id="freepik--Character--inject-2">
	<path class="st0" d="M168.5,249.9c0,0,91.8-47.8,111.7-21.4c19.9,26.4-20,47.1-27.7,51.8c-7.7,4.7-85.7,31.1-85.7,31.1l-20.6-22
		L168.5,249.9z"/>
	<path class="st1" d="M204.7,275.5l36.6,19.7l33.4,7.2c2.3,0.5,3.8,2.8,3.3,5.1c0,0.1,0,0.2-0.1,0.3l0,0c-0.4,1.3-1.4,2.4-2.7,2.8
		c-8.3,2.9-38.9,13.4-41.5,11.8c-3-1.8-40-18.2-40-18.2L204.7,275.5z"/>
	<g class="st2">
		<path class="st3" d="M277.9,307.7L231.3,321l1.6,0.8c1.4,0.7,2.9,0.9,4.4,0.5c4-0.9,14.8-3.8,37.9-11.7
			C276.5,310.2,277.6,309.1,277.9,307.7L277.9,307.7z"/>
	</g>
	<g class="st2">
		<path class="st3" d="M223.2,307.4c1.2-0.6,2.6-0.2,3.3,0.9c0.6,1.2,0.3,2.6-0.9,3.3c-1.2,0.6-2.8,0.2-3.5-1
			c-0.5-1.3,0-2.7,1.3-3.3"/>
	</g>
	<path class="st0" d="M257.4,308c0.2-0.2-1.3-2-1.3-4.7c0-2.7,1.6-4.5,1.4-4.7c-0.2-0.2-0.6,0.2-1.2,1c-0.7,1.1-1.1,2.3-1.1,3.6
		c0,1.3,0.3,2.6,1,3.6C256.8,307.7,257.4,308,257.4,308z"/>
	<path class="st0" d="M263.7,307.8c0.3-0.1-0.3-1.9,0.1-4.1s1.6-3.7,1.4-3.8c-0.2-0.2-1.8,1.2-2.3,3.7
		C262.5,306.1,263.5,308,263.7,307.8z"/>
	<path class="st0" d="M248.6,309.6c0.3-0.1-0.7-2.9-0.3-6.3s1.8-6,1.5-6.1c-0.2-0.1-2.1,2.3-2.4,6.1S248.4,309.8,248.6,309.6z"/>
	<path class="st0" d="M237,304.6c0.3,0,0.4-2.5,1.7-5.1c1.3-2.7,3-4.5,2.8-4.7c-0.2-0.2-2.3,1.4-3.6,4.3
		C236.5,302,236.7,304.6,237,304.6z"/>
	<path class="st0" d="M226.1,299.1c0.3,0,0.1-2.7,1.7-5.4c1.6-2.7,3.8-4.1,3.7-4.3c-0.1-0.2-0.7,0.1-1.6,0.7
		c-1.2,0.8-2.2,1.9-2.9,3.2c-0.7,1.3-1.1,2.7-1.2,4.1C225.7,298.4,225.9,299.1,226.1,299.1z"/>
	<path class="st0" d="M225.6,292.6c0,0-0.4-0.4-1.4-0.8c-1.3-0.5-2.8-0.8-4.2-0.8c-1.1-0.1-2.1,0.2-3,0.8c-0.6,0.5-0.8,1.2-0.5,1.9
		c0.3,0.6,0.8,1.1,1.4,1.4c2.7,1.1,5.7,0.2,7.3-2.2c1.5-2.4,1.5-5.4-0.1-7.8c-0.4-0.6-1-1-1.7-1c-0.7,0-1.4,0.5-1.6,1.2
		c-0.3,1-0.3,2.1,0,3.1c0.3,1.4,0.8,2.8,1.6,4c0.6,0.9,0.9,1.3,1,1.3c-0.9-1.7-1.6-3.5-1.9-5.3c-0.2-0.9-0.2-1.8,0-2.7
		c0.1-0.4,0.5-0.6,0.9-0.6c0.5,0.1,0.9,0.3,1.1,0.7c1.3,2,1.3,4.7,0,6.7c-1.4,2-3.9,2.8-6.2,1.9c-0.4-0.2-0.8-0.5-1-1
		c-0.1-0.4,0-0.8,0.3-1c0.8-0.5,1.7-0.8,2.6-0.7C221.9,291.7,223.8,292,225.6,292.6z"/>
	<path class="st0" d="M217.8,280.1c0,0-86.5-52.4-98.2-58.9c-10-5.6-41.8-17.9-53,12.5s49,75.3,49,75.3l51.1,2.3l17.1-6.5l19.4,6
		L217.8,280.1z"/>
	<path class="st1" d="M157,312.4l-38.8,15L91,348.1c-1.9,1.4-4.5,1.1-6-0.8c-0.1-0.1-0.1-0.2-0.2-0.2l0,0c-0.7-1.1-0.9-2.6-0.4-3.8
		c3.2-8.2,15.1-38.2,18-39.2c3.4-1.1,39.8-18.5,39.8-18.5L157,312.4z"/>
	<g class="st2">
		<path class="st3" d="M84.9,347l20.2-44.1l-1.6,0.7c-1.4,0.6-2.6,1.6-3.3,3c-1.9,3.6-6.8,13.7-15.8,36.5
			C83.9,344.3,84.1,345.8,84.9,347L84.9,347z"/>
	</g>
	<g class="st2">
		<path class="st3" d="M120.7,305.7c-0.3,1.3-1.5,2.1-2.8,1.9c-1.3-0.3-2.1-1.5-1.9-2.8c0.3-1.4,1.6-2.2,3-2
			c1.3,0.4,2.1,1.8,1.7,3.1"/>
	</g>
	<path class="st0" d="M98,331.3c0,0.3,2.4,0.3,4.4,2.1c2,1.8,2.4,4.1,2.7,4.1s0.2-0.6,0-1.6c-0.7-2.5-2.9-4.4-5.5-4.8
		C98.6,331,98,331.2,98,331.3z"/>
	<path class="st0" d="M94,336.2c-0.1,0.3,1.7,1,3,2.7c1.4,1.8,1.8,3.6,2,3.5s0.3-2.2-1.3-4.1S94,335.9,94,336.2z"/>
	<path class="st0" d="M102.5,323.5c-0.1,0.3,2.6,1.3,5,3.8c2.4,2.5,3.4,5.2,3.7,5.1c0.3-0.1-0.4-3.1-3-5.8
		C105.6,324,102.5,323.3,102.5,323.5z"/>
	<path class="st0" d="M113.9,317.9c-0.2,0.2,1.6,1.9,2.8,4.7c1.2,2.7,1.5,5.2,1.8,5.1c0.3-0.1,0.4-2.6-0.9-5.6
		S114,317.7,113.9,317.9z"/>
	<path class="st0" d="M125.2,313.3c-0.2,0.2,2,1.8,3.1,4.8c1.1,3,0.6,5.6,0.8,5.6c0.3,0.1,0.4-0.6,0.6-1.7c0.2-1.4,0-2.9-0.5-4.2
		c-0.5-1.4-1.3-2.6-2.4-3.6C125.9,313.4,125.2,313.2,125.2,313.3z"/>
	<path class="st0" d="M130.4,317.1c0.5-0.1,1-0.3,1.5-0.6c1.3-0.7,2.4-1.6,3.3-2.7c0.7-0.8,1.2-1.7,1.3-2.8c0-0.7-0.4-1.4-1.1-1.6
		c-0.7-0.2-1.4-0.2-2,0.1c-2.6,1.3-3.9,4.2-3.1,7c0.8,2.7,3.2,4.7,6,4.9c0.7,0.1,1.4-0.2,1.9-0.7c0.5-0.6,0.5-1.3,0.1-2
		c-0.6-0.9-1.4-1.5-2.4-2c-1.3-0.7-2.6-1.2-4.1-1.4c-0.5-0.1-1.1-0.1-1.6,0c1.9,0.4,3.7,1.1,5.3,2c0.8,0.4,1.5,1,2,1.8
		c0.2,0.3,0.2,0.8-0.1,1.1c-0.4,0.3-0.8,0.4-1.3,0.4c-2.4-0.3-4.4-2-5.1-4.4c-0.6-2.3,0.4-4.8,2.6-6c0.4-0.2,0.9-0.3,1.4-0.1
		c0.4,0.1,0.6,0.5,0.6,0.9c-0.1,0.9-0.5,1.7-1.1,2.4C133.5,314.9,132,316.1,130.4,317.1z"/>
	<path class="st0" d="M140.1,322.1c1.1-0.6,44.9-18.4,44.9-18.4l-43.5-21.6l-26.2,13.6L140.1,322.1z"/>
	<path class="st4" d="M86,269.4l0.6,0.2l1.7,0.6l6.6,2.3l24.3,8.5l80.2,28.3l3.8,1.2l-0.4,0.2l14.6-30.6l0.1,0.4l-50.4-30.8l-14.5-9
		l-3.8-2.4l-1-0.6c-0.2-0.1-0.3-0.2-0.3-0.2l0.3,0.2l1,0.6l3.9,2.3l14.6,8.8l50.6,30.6l0.2,0.2l-0.1,0.3l-14.6,30.6l-0.1,0.3
		l-0.3-0.1l-3.8-1.2c-2-0.6-3.9-1.3-5.9-2l-5.8-2l-11.3-4l-21.3-7.6l-36-12.8l-24.3-8.7l-6.6-2.4l-1.7-0.6
		C86.4,269.6,86.2,269.5,86,269.4z"/>
	<path class="st4" d="M140.1,322.1c-0.6-0.5-1.1-1-1.6-1.5l-4.2-4.4c-3.6-3.7-8.5-9-13.9-14.7l-5.4-5.8l-0.3-0.3l0.4-0.2l13.3-6.4
		l3.8-1.8c0.5-0.2,0.9-0.4,1.4-0.6c-0.4,0.3-0.8,0.6-1.3,0.8l-3.7,1.9l-13.2,6.7l0.1-0.5l5.4,5.8c5.4,5.7,10.2,11,13.7,14.8l4.1,4.5
		C139.3,320.8,139.7,321.4,140.1,322.1z"/>
	<path class="st4" d="M228.4,237.2c0.1,0.2-10.7,4.9-24.1,10.4c-13.4,5.6-24.2,10-24.3,9.8c-0.1-0.2,10.7-4.9,24.1-10.5
		C217.5,241.4,228.4,237,228.4,237.2z"/>
	<path class="st4" d="M161.9,105.3c-0.9,0-32.5-0.3-38.9,6.1c-6.4,6.4-19.6,104-19.6,104c6.8,1.3,11.2,3.8,15.4,5.9l53.7,31.3
		l23.2-12.1c2.8-1.6,3.8-5.1,2.3-7.9c-0.2-0.3-0.4-0.6-0.6-0.9l0,0l30.9-111.7c-4.6-3.5-9.7-6.2-15.1-8.2
		C204.1,108.4,161.9,105.3,161.9,105.3z"/>
	<path class="st4" d="M217.8,115.7c0,0,9.5,2.1,13.1,8c8.5,13.7,34.7,62.5,39.1,74.2c4.7,12.4-0.3,19.4-3.7,24.6
		c-3.6,5.6-23.5,5.6-32.5-4c-3.8-4.1-25.4-23.7-25.4-23.7L217.8,115.7z"/>
	<path class="st0" d="M228.6,133.8c-0.1,0.3-0.2,0.6-0.4,1l-1.2,2.7c-1,2.4-2.3,5.8-3.8,10.1c-3.1,8.6-6.9,20.7-10.9,34
		c-4,13.4-7.5,25.5-10.1,34.3c-1.3,4.4-2.4,7.9-3.2,10.4l-0.9,2.8c-0.1,0.3-0.2,0.7-0.4,1c0.1-0.3,0.1-0.7,0.2-1
		c0.2-0.7,0.5-1.7,0.8-2.8c0.7-2.6,1.7-6.1,3-10.4c2.5-8.8,5.9-21,9.9-34.4s7.9-25.4,11.1-34c1.6-4.3,3-7.7,4.1-10.1l1.3-2.7
		C228.3,134.4,228.4,134.1,228.6,133.8z"/>
	<path class="st4" d="M124.5,110.3c0,0-10,5.7-13.6,9c-3.6,3.3-41.3,57.1-46.2,73.8c-2.8,9.7,7.9,29.8,19.4,28.8
		c15.1-1.3,71.6-22.9,71.6-22.9l-12.7-27.6l-32,5.1l23.2-23.3l-8.7-43.4"/>
	<path class="st0" d="M258.6,192.1c-0.2-0.1-0.4-0.2-0.6-0.3l-1.6-1.1l-5.7-4c-4.8-3.5-11.3-8.3-18.5-13.6l-4.8-3.6l0.4-0.1
		c-4.6,6-8.7,11.2-11.7,14.9c-1.5,2.1-3.2,4-5,5.7l4.6-6l11.5-15.1l0.2-0.3l0.3,0.2l4.8,3.6c7.2,5.4,13.7,10.2,18.4,13.8l5.5,4.2
		l1.5,1.2C258.3,191.8,258.4,191.9,258.6,192.1z"/>
	<polygon class="st5" points="169.1,161.5 143.8,172.9 153.9,194.8 169.7,184.4 	"/>
	<path class="st6" d="M193.1,163.7l17-11.5c0.6-0.4,1.3-0.6,2-0.5l22.2,1.9c0.9,0.1,1.6,0.8,1.6,1.7c0,0.9-0.3,1.7-0.9,2.4l-36,25
		l-26.9-4.3L193.1,163.7z"/>
	<path class="st5" d="M169.1,161.5c0,0,9.2-6.8,11.3-7.2c2.2-0.4,11.8-0.3,11.8-0.3l8.1,4.6l-5,3.4c-3.5-0.8-4.5-2.1-4.5-2.1
		l-5.6,0.4L169.1,161.5z"/>
	<path class="st5" d="M179.4,158.6l14.5,5l20.8,2.9c0.1,2.4-1.7,4.5-4.1,4.7c-2.6,0.3-6.9,0.6-6.9,0.6s-1.1,3.8-4.3,4.7
		c-0.7,1.5-1.8,2.7-3.1,3.7c-0.2,0.1-0.4,0.2-0.6,0.3c-2,0.6-6,6-8.6,6.7s-17.2-2.7-17.2-2.7l-0.6-22.9L179.4,158.6z"/>
	<path class="st1" d="M183.6,170.4c0-0.1,1.2,0.2,3,0.6c2.4,0.5,4.8,0.8,7.3,0.9c2.4,0.2,4.9,0.2,7.3,0c1.9-0.1,3-0.3,3-0.2
		c-0.3,0.1-0.5,0.2-0.8,0.2c-0.5,0.1-1.3,0.2-2.2,0.3c-2.4,0.3-4.9,0.3-7.4,0.1c-2.5-0.1-4.9-0.5-7.3-1.1c-0.9-0.2-1.7-0.4-2.2-0.6
		C184.1,170.6,183.9,170.5,183.6,170.4z"/>
	<path class="st1" d="M186.5,176.3c0.1,0.5,0,1-0.1,1.4c-0.1,0.5-0.4,1-0.8,1.4c-0.5,0.5-1.2,0.7-1.9,0.6c-0.7-0.1-1.3-0.2-1.9-0.5
		c-0.5-0.3-1-0.6-1.3-0.8c-0.7-0.4-1.3-0.6-1.3-0.7c0.5,0,0.9,0.2,1.4,0.4c1,0.6,2,1,3.1,1.2c0.6,0.1,1.2-0.1,1.6-0.5
		c0.4-0.3,0.6-0.8,0.8-1.2C186.1,177.2,186.3,176.7,186.5,176.3z"/>
	<path class="st1" d="M197.2,177.7c-0.5,0.2-1,0.3-1.6,0.4c-1.3,0.2-2.6,0.4-3.8,0.5c-1.3,0.1-2.6,0.1-3.9,0c-0.5,0-1.1-0.1-1.6-0.2
		c0-0.1,2.5,0,5.5-0.3C194.8,177.8,197.1,177.6,197.2,177.7z"/>
	<path class="st1" d="M186.2,183.7c-1.4,1.1-3.3,1.4-5,0.8c0-0.1,1.2,0.1,2.6-0.1C185.2,184.2,186.2,183.6,186.2,183.7z"/>
	<path class="st1" d="M191.4,183.5c0,0.1-0.7,0.3-1.5,0.4c-0.5,0.1-1.1,0.1-1.6,0c0.5-0.3,1-0.4,1.6-0.4
		C190.7,183.4,191.4,183.4,191.4,183.5z"/>
	<path class="st1" d="M193.9,163.6c-2.3-0.5-4.6-1.3-6.8-2.3c-1.8-0.7-3.5-1.4-4.7-1.9c-0.7-0.2-1.3-0.6-1.9-1
		c0.7,0.2,1.3,0.4,2,0.7l4.7,1.8l4.7,1.8C193.2,163.2,193.9,163.5,193.9,163.6z"/>
	<path class="st5" d="M215.1,168.7c0,0-1.6-0.6,0.1-3.1c1.7-2.5,6.6,0.5,6.6,0.5l6.2,3.7c0,0,1.4,3.2-0.3,4.1l-1.3,1.6
		c0,0,2.4,2.4,1.4,4.6c-0.6,1.3-2,2-3.4,1.8c0,0,0.3,4.3-1.1,6c-0.7,0.9-1.6,1.5-2.7,1.8c-0.9,2.3-2.9,4.1-5.3,4.6
		c-4.1,1.1-6.3,1.1-7.4-0.6c-0.8-1.2-1.4-2.6-1.8-4c0,0-8.9-4.7-9.1-7c-0.2-2.4,0.2-2.6,0.2-2.6c-0.4-1.1-0.3-2.3,0.2-3.4
		c0.9-1.4,4.4-0.2,4.4-0.2l11.4,2.7c0,0-9.1-4.3-10.2-5.7c-1.1-1.4,0.1-3.1,3.7-2.7c3.6,0.4,14.7,2.5,14.7,2.5
		c-0.3-0.6-0.7-1.1-1.3-1.4c-0.7-0.3-3-1.6-3-1.6L215.1,168.7z"/>
	<path class="st1" d="M217.8,186c0,0.1-4.6-1.1-10.2-2.6c-5.6-1.5-10.2-2.9-10.2-3s4.6,1.1,10.2,2.6
		C213.3,184.5,217.8,185.9,217.8,186z"/>
	<path class="st1" d="M212.4,192.1c-1.1-0.1-2.3-0.4-3.3-0.8c-0.8-0.3-1.5-0.5-2.3-0.9c-0.2-0.1-0.5-0.2-0.7-0.4
		c-0.1,0-0.1-0.1-0.2-0.1c0,0,0-0.1,0-0.1c0,0,1.4,0.5,3.2,1.1C210.3,191.2,211.4,191.6,212.4,192.1z"/>
	<path class="st1" d="M222.1,181c0,0.1-2.2-0.3-5-0.8c-2.7-0.4-5-0.7-5-0.9c1.7,0,3.4,0.1,5,0.5C218.9,180,220.5,180.4,222.1,181z"
		/>
	<path class="st1" d="M224.9,175.1c-0.1,0.1-1-0.5-2.2-1s-2.3-0.6-2.3-0.7c0.8-0.2,1.7,0,2.5,0.3C223.6,174,224.4,174.5,224.9,175.1
		z"/>
	<path class="st0" d="M234.8,155.6h-0.4l-1.2-0.1c-1-0.1-2.6-0.3-4.3-0.5c-3.7-0.4-8.8-0.9-14.4-1c-1.3-0.2-2.7,0-3.9,0.5
		c-0.6,0.3-1.1,0.7-1.6,1.1l-1.5,1.1l-5.3,3.8l-3.6,2.5l-1,0.7c-0.2,0.2-0.3,0.2-0.4,0.2c0.1-0.1,0.2-0.2,0.3-0.3l0.9-0.7l3.5-2.6
		l5.3-3.8l1.5-1.1c0.5-0.4,1.1-0.8,1.7-1.1c0.6-0.3,1.3-0.5,2-0.5c0.7,0,1.4,0,2.1,0c4.8,0.1,9.6,0.5,14.4,1.1
		c1.8,0.2,3.3,0.5,4.3,0.7l1.2,0.2C234.6,155.5,234.7,155.5,234.8,155.6z"/>
	<path class="st3" d="M220.9,157.5c-0.2-0.3-0.7-0.5-1.1-0.4l0,0h-0.2l0,0c-0.3,0.1-0.6,0.2-0.9,0.5c-0.3,0.3-0.3,0.8,0,1.2
		c0.2,0.2,0.4,0.3,0.6,0.3c0.5,0.1,0.9,0,1.3-0.3C221.1,158.4,221.1,157.9,220.9,157.5z"/>
	<path class="st0" d="M170.6,34.5l-2.5-1.3c-1.1-0.8-2.4-1.1-3.8-0.9c-1.2,0.3-2.1,1.5-3.3,1.6c-1.5,0.2-2.7-1.2-4.1-1.1
		c-1.5,0.1-2.5,1.3-3.8,1.3c-1,0-2.1-0.7-3-0.2c-0.2,0.1-0.3,0.2-0.5,0.4c-1.1,0.5-2.4,0.4-3.4-0.2c-1-0.6-2.2-0.8-3.4-0.6
		c-0.7,0.3-1.3,0.8-1.8,1.4c-0.5,0.6-1.3,0.9-2.1,0.8c-0.4-0.1-0.8-0.4-1.2-0.5c-1.3-0.3-2.4,1.1-3.8,1.4s-2.7-0.3-3.8,0.3
		c-0.9,0.4-1.3,1.5-0.9,2.4c0.4,0.9,1.3,1.5,2.2,1.7c1,0.2,2,0.1,3-0.2c0.8-0.3,1.6-0.5,2.4-0.6c1.9,0.1,3.4,2,5.3,1.6
		c0.9-0.3,1.6-0.8,2.3-1.5c1.1-0.8,2.4-1.2,3.7-1.2c0.9,0.1,1.8,0.1,2.6-0.1c1-0.4,1.6-1.5,2.6-1.8s2.3,0.4,3.4,0.3
		c0.8-0.1,1.5-0.5,2.2-0.5c1.1-0.1,2.1,0.6,3.2,0.6c1.1-0.1,2-1,3.2-0.9c0.4,0.1,0.9,0.2,1.3,0.3c0.4,0.2,0.9,0.1,1.3-0.2
		c0.2-0.2,0.3-0.6,0.6-0.8c0.2-0.1,0.5-0.1,0.7-0.1l3.6,0.4L170.6,34.5z"/>
	<path class="st0" d="M174.4,34.3c-1.2-0.9-2.8-1.8-4.2-1.1c-0.5,0.3-0.9,0.7-1.4,1c-1.2,0.5-2.6-0.2-3.8,0.2
		c-1,0.3-1.7,1.3-2.7,1.7c-1.5,0.8-3.8,0.3-4.8,1.7c-0.5,0.7-0.6,1.9-1.5,2.1c-0.3,0-0.7,0-1-0.1c-1.1-0.3-2.3-0.3-3.4-0.1
		c-0.6,0.1-1.2,0.3-1.8,0.7c-0.9,0.8-0.9,2.3-1.8,3.1c-1.3,1.3-3.7,0.7-5.4,1.5c-0.8,0.5-1.4,1-2.1,1.7c-1.3,1-2.8,1.9-4.4,2.6
		c-1.5,0.7-2.9,1.8-3.8,3.2c-0.9,1.4-0.7,3.2,0.5,4.4c0.6,0.5,1.5,0.6,2.2,0.1c0.2-0.2,0.3-0.4,0.5-0.6c0.4-0.3,1-0.6,1.5-0.8
		c0.5-0.2,1.1-0.6,1.1-1.1c0-0.3-0.2-0.7,0.1-1c0.1-0.1,0.3-0.1,0.4-0.1c1.4-0.1,3-0.1,3.8-1.2c0.2-0.5,0.4-1.1,0.6-1.6
		c0.4-0.9,1.2-1.6,2.2-1.8c0.8-0.2,1.8-0.1,2.4-0.6c0.7-0.5,0.8-1.7,1.5-2.3c1.1-1.1,3.4-0.3,4.4-1.5c0.3-0.3,0.4-0.7,0.7-0.9
		c0.9-0.6,2,0.6,3.1,0.4c1.1-0.2,1.3-1.3,1.9-1.9c1-0.6,2-1.1,3.2-1.5c1.3-0.7,2.3-1.9,3.7-2.3c1.3-0.4,2.7-0.1,3.6-1
		c0.3-0.3,0.6-0.8,1.1-1c0.3-0.1,0.6-0.1,0.8,0c1.4,0.2,2.8-0.1,4.1-0.8L174.4,34.3z"/>
	<path class="st0" d="M172.4,37.6c-3.1-0.5-6.3,0.4-8.7,2.6c-0.5,0.5-1,0.9-1.6,1.3c-1,0.3-2.1,0.4-3.2,0.4
		c-2.4,0.3-4.5,1.9-5.3,4.3c-0.5,1.5-0.7,3.4-2.1,3.9c-0.3,0.1-0.5,0.2-0.8,0.3c-0.9,0.6-0.3,2.1-0.3,3.3c0,1.9-2.2,3.2-2.2,5.1
		c0,0.7,0.2,1.4,0.5,2c0.7,1.8,1.6,3.6,2.4,5.4c0.4,0.8,0.9,1.7,1.8,1.8c1.3,0.2,2-1.3,2.3-2.6c0.4-0.9,0.4-1.8,0.1-2.7
		c-0.4-0.7-1.1-1.1-1.4-1.8c-0.5-1.1,0.3-2.4,0.9-3.4c1.2-2.2,1.5-4.7,1-7.1c1.3-0.2,2-2.1,3.3-2.3c0.4,0,0.7-0.1,1.1-0.1
		c0.9-0.4,1-1.7,1.8-2.3c0.8-0.6,2.6-0.1,3-1.2c0.1-0.3,0.1-0.8,0.3-1c0.2-0.2,0.4-0.3,0.7-0.4l3.2-0.8c0.6-0.1,1.2-0.4,1.7-0.8
		c0.8-0.8,1-2.3,2-2.7L172.4,37.6z"/>
	<path class="st0" d="M175.8,31.2c-0.1-1.9-0.5-4.2-2.2-4.9c-1-0.5-2.2-0.2-3.2-0.7c-1.9-0.9-2-4-3.8-4.9s-4.2,0.5-5.7-0.9
		c-0.8-0.7-0.9-1.9-1.5-2.8c-0.8-0.9-2-1.4-3.3-1.4c-1.2,0.1-2.4-0.1-3.6-0.5c-1.9-0.8-3.1-3.2-5.2-3.4c-1.8-0.1-3.1,1.4-4.2,2.8
		c-0.3,0.3-0.5,0.7-0.6,1.2c0,0.8,0.4,1.6,1.1,1.9c1.4,0.8,3.2,0.7,4.5,1.7c0.4,0.4,0.9,0.8,1.4,1.1c0.7,0.4,1.7,0.3,2.4,0.8
		c1.4,0.9,1.4,3.2,2.8,4.1s3-0.2,4.5,0.2c2,0.5,3.2,3.3,5.3,3.4c0.9-0.1,1.8-0.3,2.7-0.6c1.2-0.1,2.4,0.6,2.9,1.7
		c0.3,0.7,0.4,1.6,0.8,2.3c0.5,0.9,1.4,1.4,2.4,1.5c1,0.1,1.9,0,2.9-0.2L175.8,31.2z"/>
	<path class="st0" d="M174.2,37.1c-1.3-2.4-2.9-5-5.5-6.1c-1.4-0.4-2.7-0.9-4.1-1.4c-1-0.6-1.8-1.6-2.8-2.3
		c-2.3-1.6-5.5-1.5-8.3-1.1c-2.8,0.4-5.7,1.2-8.5,0.5c-2.5-0.6-4.6-2.3-7.2-2.4c-1.4,0-2.8,0.2-4.1,0.7l-4.6,1.3
		c-0.5,0.1-1,0.4-1.3,0.8c-0.5,0.8,0.5,1.8,1.4,2.2c1.5,0.6,3.2,0.8,4.8,0.5c1.2-0.4,2.5-0.6,3.8-0.6c0.9,0.2,1.7,0.5,2.6,0.8
		c1.1,0.2,2.2,0.2,3.3,0l5.1-0.5c1.3-0.3,2.7-0.1,3.9,0.3c0.9,0.4,1.7,1.3,2.7,1.4s2.2-0.7,3.4-0.6c1.4,0.2,2,1.7,3.3,2.3
		c1.5,0.7,3.4-0.1,4.8,0.7c1,0.5,1.4,1.6,2,2.5c0.5,0.7,1.2,1.4,2,1.8c1,0.5,2.1,0.9,3.3,1.2L174.2,37.1z"/>
	<path class="st0" d="M176.9,26.3c-0.6-0.8-1.5-1.7-1.3-2.7c0.1-0.5,0.5-0.9,0.6-1.4c0.2-0.9-0.8-1.6-1.1-2.6
		c-0.3-0.9,0-2.3-0.6-3.3c-0.6-0.9-1.9-1.1-3.1-1.4c-1.3-0.2-2.3-1.1-2.9-2.2c-0.1-0.8-0.2-1.7-0.2-2.6c-0.4-2.3-2.4-3.9-4.6-4
		c-0.6,0.1-1.3,0-1.9-0.2c-1.1-0.5-1.3-1.9-2-2.9c-0.9-1.5-2.5-2.2-4.2-2c-0.8,0.2-1.6,1-1.2,1.6c0.2,0.3,0.5,0.4,0.8,0.6
		c0.9,0.7,0.2,2.2,0.8,3.3c0.5,1,2.2,1.3,2.6,2.4c0.4,0.8-0.1,1.9,0.3,2.7c0.4,1,1.8,1.3,2.9,1.3c1.1,0,2.5,0.3,2.9,1.3
		c0.1,0.5,0.2,1,0.2,1.5c0.1,0.9,0.7,1.6,1.5,2c1.1,0.6,2.6,0.4,3.3,1.5c0.7,1-0.3,2.8,0.3,4c0.5,0.9,1.6,1.1,2.5,1.7
		c0.2,0.1,0.4,0.3,0.4,0.5c0,0.2,0,0.5-0.2,0.7c-0.7,1.4-1.5,3-0.9,4.4c0.3,0.5,0.7,1,1.2,1.4c1.4,1.4,2.4,3.2,3,5.1l1.2-5.2
		C178.2,29.9,178,27.9,176.9,26.3z"/>
	<path class="st0" d="M183.5,8.7c0.5-1.5-0.1-3.2-1.5-4c-1.3-0.7-3-0.2-3.7,1.2c0,0.1-0.1,0.2-0.1,0.3c-0.5,1.7,0.9,3.7,0,5.2
		c-0.3,0.4-0.6,0.8-0.8,1.2c-0.3,1.1,1.1,2.1,1.1,3.3s-1.6,2-2,3.3s1.1,3,0.5,4.4c-0.2,0.4-0.4,0.7-0.7,1c-1.5,2.2-0.7,5.1,0.1,7.7
		l3.4-0.5c-0.6-2.4,2.7-4.7,1.6-6.9c-0.5-1-2-1.8-1.7-2.9c0.1-0.3,0.3-0.6,0.5-0.8l3.2-3.5c0.5-0.5,0.9-1.1,1-1.8
		c0.1-1.5-1.7-2.5-2-4C182.4,10.8,183.2,9.8,183.5,8.7z"/>
	<path class="st1" d="M184.7,27.9c-0.3-1.1-1.8-1.4-2.9-1.3c-3.1,0.5-5.5,3.1-7.5,5.6c-2.3,2.7-4.4,5.5-6.2,8.5
		c-0.4,0.6-0.7,1.4-0.9,2.2c-0.1,0.8,0.2,1.6,0.8,2.1c0.6,0.4,1.5,0.3,1.9-0.3c0,0,0.1-0.1,0.1-0.1l0.9-0.2c3.1-5.2,7.1-9.7,12-13.3
		C183.9,30.1,185,29.1,184.7,27.9z"/>
	<path class="st0" d="M167.4,76.1c-0.9-6.2-1.3-12.5-1.2-18.8c0.2-6.3,1.9-12.5,5-17.9c0.5-0.8,4.4-6.1,5.3-5.9
		c0.7,0.2-2.1,5.3-1.9,6c2.1,6.1,1.7,12.9,0,19.2C172.9,64.8,170.4,70.6,167.4,76.1"/>
	<path class="st5" d="M195.2,117c0.9-4.3,1.6-7.8,1.7-7.8c0,0,15.2,1.4,19.1-13.2c1.9-7.1,4.5-21.9,6.8-35.3
		c2.4-14.5-6.6-28.4-20.9-32l-1.4-0.4c-15.5-2.9-26.6,8.5-29.1,24.1l-10.5,54.1l24.1,25.3L195.2,117z"/>
	<path class="st1" d="M196.9,109.2c-6.8-1.7-12.9-5.3-17.6-10.4c0,0,2,11.8,16.9,14.2L196.9,109.2z"/>
	<path class="st0" d="M215.3,72.3c-0.3,1.1-1.4,1.9-2.6,1.6c-1.1-0.2-1.9-1.3-1.7-2.4c0,0,0,0,0-0.1c0.3-1.1,1.4-1.8,2.6-1.6
		C214.7,70,215.5,71.1,215.3,72.3C215.3,72.2,215.3,72.3,215.3,72.3z"/>
	<path class="st0" d="M218.1,66c-0.3,0.2-1.6-1.4-3.8-1.9c-2.2-0.6-4.2,0.2-4.4-0.2c-0.1-0.2,0.3-0.6,1.2-0.9
		c1.1-0.4,2.4-0.5,3.6-0.2c1.2,0.3,2.2,0.9,3,1.9C218.2,65.3,218.3,65.9,218.1,66z"/>
	<path class="st0" d="M194.9,68.4c-0.3,1.1-1.4,1.9-2.6,1.6c-1.1-0.2-1.9-1.3-1.7-2.4c0,0,0,0,0-0.1c0.3-1.1,1.4-1.9,2.6-1.6
		C194.3,66.1,195.1,67.2,194.9,68.4C194.9,68.3,194.9,68.3,194.9,68.4z"/>
	<path class="st0" d="M195.8,61.3c-0.3,0.2-1.6-1.4-3.8-1.9c-2.2-0.6-4.2,0.2-4.4-0.2c-0.1-0.1,0.3-0.6,1.2-0.9
		c1.1-0.4,2.4-0.5,3.6-0.2c1.2,0.3,2.2,0.9,3,1.9C195.9,60.7,196,61.2,195.8,61.3z"/>
	<path class="st0" d="M199.5,80.7c1.3-0.1,2.6,0,3.8,0.3c0.6,0.1,1.2,0.1,1.4-0.3c0.2-0.6,0.2-1.2,0-1.8c-0.2-1.5-0.4-3.1-0.6-4.8
		c-0.8-6.8-1.2-12.4-0.9-12.4c0.3,0,1.1,5.5,1.9,12.3c0.2,1.7,0.4,3.3,0.5,4.8c0.2,0.8,0.1,1.6-0.3,2.3c-0.3,0.4-0.7,0.6-1.2,0.6
		c-0.3,0-0.7,0-1-0.1C202,81.4,200.7,81.1,199.5,80.7z"/>
	<path class="st0" d="M192.6,80.6c0.4,0.1-0.2,2.6,1.4,4.8c1.7,2.2,4.3,2.6,4.2,3c-0.1,0.3-0.7,0.3-1.8,0.1
		c-1.4-0.3-2.7-1.2-3.6-2.4c-0.8-1.1-1.2-2.6-1-4C191.9,81,192.4,80.5,192.6,80.6z"/>
	<path class="st0" d="M198,52.2c-0.4,0.6-2.6-0.3-5.3-0.6c-2.7-0.3-5-0.2-5.2-0.8c-0.1-0.3,0.4-0.8,1.4-1.2c2.7-0.9,5.7-0.5,8,1.1
		C197.8,51.3,198.2,51.9,198,52.2z"/>
	<path class="st0" d="M219,58.2c-0.5,0.4-1.9-0.5-3.8-1s-3.5-0.5-3.8-1.2c-0.1-0.3,0.3-0.7,1.1-1.1c2.2-0.7,4.6,0,6.1,1.7
		C219.2,57.5,219.3,58,219,58.2z"/>
	<path class="st5" d="M169.8,63.6c-0.2-0.2-9.3-5.5-11.5,4.6c-2.2,10.1,8.4,10.2,8.5,9.9S169.8,63.6,169.8,63.6z"/>
	<path class="st1" d="M164.5,73.6c0,0-0.2,0.1-0.5,0.2c-0.4,0.1-0.9,0-1.3-0.3c-1-0.6-1.5-2.6-1.2-4.3c0.2-0.9,0.5-1.7,1-2.4
		c0.3-0.6,0.9-1,1.6-1.1c0.4,0,0.8,0.3,0.9,0.7c0.1,0.3,0,0.5,0,0.5c0,0,0.3-0.1,0.3-0.6c0-0.3-0.1-0.5-0.3-0.7
		c-0.2-0.3-0.6-0.4-0.9-0.5c-0.9,0-1.7,0.4-2.2,1.2c-0.6,0.8-1.1,1.7-1.3,2.7c-0.4,2,0.3,4.2,1.6,4.9c0.5,0.3,1.1,0.3,1.7,0.1
		C164.4,73.9,164.5,73.7,164.5,73.6z"/>
	<path class="st0" d="M219.7,42.6c1.8-0.6-2-6.9-5.6-9.5c-5.5-4-14.4-7.7-20.4-7.2c-7.1,0.5-13.5,2.7-18.1,8.1
		c-4.6,5.6-7.6,12.3-8.7,19.4c-0.5,2.1-0.5,4.4,0.1,6.5c0.9,2.6,3.4,4.5,2.6,7.6c-0.3,1.1-0.2,2.3,0.4,3.3c1.4,2.4,4.1,1,5.5-0.7
		c3-3.5,4.3-8.2,5.4-12.7c1-3.1,1.5-6.4,1.4-9.7c-0.1-1.8-0.6-3.6-0.7-5.4c-0.2-1.8,0.5-3.6,1.8-4.9c0.3-0.2,0.6-0.5,1-0.7
		c3.4-1.9,7.6-1.8,10.9,0.2c5.3,3.2,14.4,8.2,17.3,6.8c4.2-2,5.5-3.6,5.5-3.6L219.7,42.6z"/>
	<path class="st0" d="M112.1,214.7c0.3-0.1,0.5-0.3,0.8-0.4l2.4-0.9l9-3.4l31.3-11.5l-0.2,0.4c-2.6-5.6-5.4-11.8-8.4-18.1l-4.3-9.4
		l0.3,0.2l-31.3,4.8l0,0c-5.7,1.6-11.2,4-16.2,7.1c-1.8,1.1-3.1,2-4.1,2.7l-1,0.7c-0.1,0.1-0.2,0.2-0.4,0.2l0.3-0.3l1-0.8
		c0.9-0.7,2.2-1.7,4-2.8c5-3.2,10.5-5.7,16.2-7.4l0,0L143,171h0.2l0.1,0.2c1.4,3.1,2.9,6.2,4.3,9.4c2.9,6.4,5.7,12.5,8.3,18.2
		l0.2,0.3l-0.3,0.1l-31.4,11.3l-9.1,3.2l-2.4,0.8L112.1,214.7z"/>
	<path class="st0" d="M130.9,157.2c-0.8,1.1-1.6,2.2-2.6,3.1c-1.7,1.9-4,4.4-6.6,7.2c-2.6,2.8-5.1,5.2-7,6.9
		c-0.7,0.7-1.5,1.3-2.3,1.9c-0.3,0.2-0.5,0.4-0.8,0.3c-0.1-0.1-0.1-0.2,0-0.3v-0.1c0,0,0,0.2,0.1,0.2c0.2-0.1,0.4-0.2,0.6-0.4
		c0.5-0.4,1.3-1.1,2.2-2c1.8-1.8,4.2-4.3,6.8-7l6.8-7.1C128.9,159,129.8,158.1,130.9,157.2z"/>
	<path class="st0" d="M136.9,144.6c-0.1,0,0.3-2,0.3-5.2c0-1.9-0.2-3.8-0.5-5.6c-0.8-4.6-2.5-8.9-4.9-12.9c-1-1.6-2.2-3.1-3.4-4.5
		c-2.2-2.4-3.8-3.6-3.7-3.7c0.4,0.2,0.8,0.5,1.2,0.8c0.4,0.3,0.9,0.7,1.3,1.1c0.6,0.5,1.1,1,1.6,1.5c1.3,1.4,2.5,2.9,3.6,4.5
		c1.3,2,2.4,4.1,3.2,6.3c0.8,2.2,1.4,4.5,1.8,6.8c0.3,1.9,0.4,3.8,0.3,5.7c0,0.7-0.1,1.5-0.2,2.2c0,0.6-0.1,1.1-0.2,1.7
		C137.2,143.6,137.1,144.1,136.9,144.6z"/>
	<path class="st0" d="M169.6,240c0-0.1,1.6,0,4.2,0c6.8-0.2,13.3-2.1,19.1-5.6c2.2-1.3,3.5-2.4,3.5-2.3c0.1,0.1-0.3,0.3-0.8,0.8
		c-0.8,0.7-1.6,1.3-2.5,1.9c-2.8,1.9-6,3.3-9.2,4.3c-3.3,1-6.7,1.4-10.1,1.4c-1,0-2.1-0.1-3.1-0.2
		C170.3,240.2,169.9,240.1,169.6,240z"/>
	<path class="st0" d="M188.6,211.7c-0.2,0.4-0.5,0.8-0.9,1.1c-0.6,0.7-1.4,1.6-2.6,2.8c-2.2,2.3-5.3,5.4-9,8.7
		c-3.6,3.2-7.1,6-9.6,7.9c-1.3,1-2.3,1.7-3.1,2.2c-0.4,0.3-0.8,0.5-1.2,0.7c0.3-0.4,0.6-0.7,1-0.9l2.9-2.4c2.5-2,5.8-4.8,9.5-8.1
		s6.8-6.3,9.1-8.5l2.7-2.6C188.2,212,188.6,211.7,188.6,211.7z"/>
</g>
</svg>
