<svg id="Layer_1" data-name="Layer 1" xmlns="http://www.w3.org/2000/svg" xmlns:xlink="http://www.w3.org/1999/xlink" viewBox="0 0 50 50"><defs><style>.cls-1{fill:none;}.cls-2{clip-path:url(#clip-path);}.cls-3{fill:url(#linear-gradient);}.cls-4{clip-path:url(#clip-path-2);}.cls-5{fill:url(#linear-gradient-2);}</style><clipPath id="clip-path"><path class="cls-1" d="M21.46,23.21a3.72,3.72,0,1,0,3.72-3.72,3.73,3.73,0,0,0-3.72,3.72"/></clipPath><linearGradient id="linear-gradient" x1="-508.36" y1="1057.76" x2="-507.81" y2="1057.76" gradientTransform="matrix(13.66, 0, 0, -13.66, 6966.01, 14473.13)" gradientUnits="userSpaceOnUse"><stop offset="0" stop-color="#f4c086"/><stop offset="1" stop-color="#f3b358"/></linearGradient><clipPath id="clip-path-2"><path class="cls-1" d="M24.72,38a23.32,23.32,0,0,1-4.44-4,16.66,16.66,0,0,1-4.47-10.81,9.37,9.37,0,1,1,18.74,0A16.61,16.61,0,0,1,30.08,34a23,23,0,0,1-4.44,4,.83.83,0,0,1-.92,0M3.5,25A21.5,21.5,0,1,0,25,3.5,21.51,21.51,0,0,0,3.5,25"/></clipPath><linearGradient id="linear-gradient-2" x1="-535.4" y1="1018.64" x2="-534.85" y2="1018.64" gradientTransform="matrix(78.96, 0, 0, -78.96, 42278.01, 80455.58)" xlink:href="#linear-gradient"/></defs><g class="cls-2"><rect class="cls-3" x="21.46" y="19.49" width="7.44" height="7.44"/></g><g class="cls-4"><rect class="cls-5" x="3.5" y="3.5" width="43" height="43"/></g></svg>