<svg id="Layer_1" data-name="Layer 1" xmlns="http://www.w3.org/2000/svg" xmlns:xlink="http://www.w3.org/1999/xlink" viewBox="0 0 50 50"><defs><style>.cls-1{fill:none;}.cls-2{clip-path:url(#clip-path);}.cls-3{fill:url(#linear-gradient);}</style><clipPath id="clip-path"><path class="cls-1" d="M27.29,29.87l3.46-3.47,7.3,7.3a1,1,0,0,1-.64.23H13a.93.93,0,0,1-.62-.23l7.28-7.28,3.45,3.45a3,3,0,0,0,4.21,0M12,18.75,18.23,25,12,31.28ZM32.15,25l6.25-6.25v12.5Zm-7.67,3.46L12.33,16.31h0l0,0,0,0,0,0h0a.05.05,0,0,1,0,0l0,0,0,0H37.76l.05,0,0,0,0,0h0l0,0,0,0,0,0h0L25.88,28.46a1,1,0,0,1-.7.29,1,1,0,0,1-.7-.29M3.5,25A21.5,21.5,0,1,0,25,3.5,21.51,21.51,0,0,0,3.5,25"/></clipPath><linearGradient id="linear-gradient" x1="-535.4" y1="1016.99" x2="-534.85" y2="1016.99" gradientTransform="matrix(78.96, 0, 0, -78.96, 42278.01, 80325.38)" gradientUnits="userSpaceOnUse"><stop offset="0" stop-color="#f4c086"/><stop offset="1" stop-color="#f3b358"/></linearGradient></defs><g class="cls-2"><rect class="cls-3" x="3.5" y="3.5" width="43" height="43"/></g></svg>